<?xml version="1.0" encoding="UTF-8" standalone="no"?>
<!DOCTYPE svg PUBLIC "-//W3C//DTD SVG 1.1//EN" "http://www.w3.org/Graphics/SVG/1.1/DTD/svg11.dtd">
<svg xmlns="http://www.w3.org/2000/svg" version="1.1" viewBox="0.00 0.00 986.00 276.00">
<path fill="#000000" d="
  M 393.76 116.89
  L 393.08 120.64
  A 2.69 2.69 0.0 0 1 391.11 122.76
  L 355.26 132.10
  A 2.58 2.57 -31.4 0 1 352.89 131.53
  L 327.03 108.50
  A 0.23 0.23 0.0 0 0 326.66 108.77
  L 330.88 117.95
  A 4.11 4.07 32.8 0 1 331.26 119.67
  L 331.26 130.41
  A 0.85 0.85 0.0 0 1 330.37 131.26
  L 285.79 129.05
  A 1.08 1.06 -3.4 0 1 284.79 128.18
  Q 284.12 124.65 284.02 121.25
  Q 283.75 112.13 283.89 100.65
  A 3.06 3.04 -68.1 0 0 282.93 98.38
  L 263.01 79.49
  A 2.13 2.13 0.0 0 1 262.34 77.94
  L 262.34 67.37
  A 2.24 2.24 0.0 0 1 263.10 65.69
  L 282.89 48.24
  A 1.71 1.71 0.0 0 1 285.28 48.35
  L 296.03 59.81
  A 0.79 0.78 -47.2 0 0 297.22 59.76
  L 307.84 46.45
  A 1.30 1.29 -52.2 0 1 309.64 46.22
  L 329.32 61.15
  A 1.86 1.86 0.0 0 0 331.44 61.24
  Q 339.28 56.32 349.63 49.61
  Q 351.49 48.40 355.51 48.65
  Q 365.85 49.28 376.65 49.46
  A 2.32 2.30 71.2 0 1 378.42 50.34
  L 389.83 64.70
  A 0.43 0.43 0.0 0 0 390.59 64.46
  L 391.30 50.03
  A 1.25 1.24 1.2 0 1 392.54 48.85
  Q 409.82 48.81 414.06 48.83
  C 418.74 48.84 423.99 50.09 427.88 49.90
  A 0.84 0.82 -18.5 0 1 428.60 50.25
  L 429.91 52.14
  A 1.65 1.64 -5.0 0 0 430.59 52.71
  C 431.37 53.06 433.32 52.61 434.48 52.73
  Q 443.61 53.66 453.49 53.27
  Q 454.24 53.24 456.35 52.18
  A 1.69 1.67 -60.7 0 1 456.94 52.01
  L 495.14 48.84
  A 3.26 3.23 -29.3 0 1 497.31 49.44
  Q 504.85 54.86 514.12 61.62
  Q 515.63 62.71 515.83 65.25
  Q 517.08 80.63 517.36 86.75
  Q 517.66 93.03 517.02 98.27
  A 1.02 1.02 0.0 0 0 517.36 99.17
  L 526.06 106.92
  A 2.31 2.31 0.0 0 1 526.84 108.65
  L 526.84 119.80
  A 2.06 2.05 -11.5 0 1 525.58 121.69
  L 500.48 132.38
  A 2.40 2.38 -35.4 0 1 497.94 131.96
  L 491.92 126.61
  A 0.33 0.32 -67.9 0 0 491.38 126.84
  L 491.16 131.24
  A 0.70 0.70 0.0 0 1 490.46 131.91
  L 461.43 131.91
  A 1.00 0.99 -3.6 0 1 460.44 131.04
  L 458.53 115.05
  A 0.40 0.40 0.0 0 0 457.84 114.83
  L 443.09 131.40
  A 2.32 2.30 -68.7 0 1 441.38 132.16
  L 407.53 132.16
  A 2.24 2.23 -19.2 0 1 405.78 131.32
  L 394.23 116.77
  A 0.27 0.26 -58.9 0 0 393.76 116.89
  Z
  M 323.05 101.74
  A 0.37 0.37 0.0 0 0 323.75 101.57
  Q 323.36 93.85 324.35 89.29
  A 0.34 0.34 0.0 0 0 323.78 88.97
  L 319.95 92.56
  A 1.51 1.50 56.0 0 0 319.62 94.28
  L 323.05 101.74
  Z"
/>
<path fill="#000000" d="
  M 688.83 119.01
  Q 688.28 122.26 684.28 123.28
  Q 666.55 127.81 650.56 132.09
  A 2.88 2.86 -31.6 0 1 647.89 131.46
  L 624.29 110.45
  A 0.42 0.42 0.0 0 0 623.64 110.56
  L 612.90 130.80
  A 2.16 2.15 -75.9 0 1 611.00 131.94
  L 581.82 131.94
  A 2.53 2.46 -24.9 0 1 580.25 131.39
  L 558.42 114.00
  A 2.54 2.53 -70.7 0 1 557.47 112.02
  L 557.47 101.89
  A 4.29 4.25 -29.8 0 1 558.07 99.71
  L 561.30 94.29
  A 0.89 0.88 -55.5 0 0 561.09 93.14
  L 559.77 92.09
  A 1.47 1.43 19.8 0 1 559.22 90.96
  L 559.22 80.22
  A 2.71 2.69 -24.2 0 1 559.91 78.42
  L 585.68 49.49
  A 3.26 3.23 -69.0 0 1 588.10 48.40
  Q 600.76 48.34 608.85 48.36
  Q 611.41 48.37 612.22 49.24
  Q 615.40 52.63 623.95 61.77
  A 1.18 1.18 0.0 0 0 625.44 61.96
  Q 638.15 53.85 644.50 49.74
  Q 646.50 48.45 648.75 48.57
  Q 658.13 49.10 671.93 49.51
  A 2.04 2.01 -17.9 0 1 673.46 50.28
  L 686.11 66.21
  A 0.43 0.43 0.0 0 0 686.88 65.91
  Q 686.15 56.79 687.09 48.61
  A 1.24 1.23 6.3 0 1 688.45 47.53
  L 720.63 51.11
  A 1.44 1.43 -87.9 0 1 721.90 52.48
  Q 722.47 66.87 720.64 84.54
  A 1.25 1.25 0.0 0 0 722.03 85.91
  L 741.95 83.52
  A 0.97 0.96 54.7 0 1 742.52 83.62
  Q 743.68 84.21 743.81 85.79
  A 0.32 0.32 0.0 0 0 744.40 85.93
  Q 755.25 67.40 764.11 52.60
  Q 765.33 50.58 766.96 50.41
  Q 780.92 49.03 787.58 48.40
  A 1.42 1.41 74.9 0 1 788.99 49.22
  L 808.18 90.92
  A 0.32 0.32 0.0 0 0 808.79 90.85
  Q 810.89 80.05 815.73 53.25
  Q 816.18 50.77 816.99 49.04
  A 0.82 0.82 0.0 0 1 817.73 48.57
  L 836.20 48.57
  A 1.66 1.65 -16.5 0 1 837.59 49.32
  L 839.47 52.22
  A 0.48 0.48 0.0 0 0 840.34 52.05
  L 840.95 48.71
  A 0.95 0.95 0.0 0 1 842.02 47.94
  L 869.94 52.18
  A 1.62 1.62 0.0 0 1 871.31 53.63
  Q 871.63 57.13 871.69 62.19
  C 871.75 67.27 870.97 72.57 871.00 77.31
  A 0.18 0.18 0.0 0 0 871.33 77.40
  L 886.65 51.72
  A 2.07 2.06 12.0 0 1 888.18 50.73
  L 909.41 48.18
  A 1.38 1.38 0.0 0 1 910.83 48.98
  L 939.90 112.14
  A 7.86 7.80 -57.5 0 1 940.61 115.40
  L 940.61 125.77
  A 0.66 0.65 85.4 0 1 940.07 126.42
  L 904.59 132.30
  A 1.38 1.38 0.0 0 1 903.01 131.16
  L 900.75 117.58
  A 0.75 0.75 0.0 0 0 900.01 116.95
  L 891.82 116.95
  A 1.06 1.05 -81.4 0 0 890.81 117.70
  L 886.53 131.68
  A 1.50 1.49 13.7 0 1 884.83 132.71
  L 868.02 129.65
  A 0.95 0.95 0.0 0 0 867.03 130.10
  L 866.31 131.30
  A 1.20 1.20 0.0 0 1 865.18 131.89
  L 843.63 130.41
  A 2.78 2.75 75.4 0 1 841.52 129.16
  L 837.52 123.00
  A 0.44 0.44 0.0 0 0 836.72 123.16
  L 835.35 130.65
  A 1.46 1.45 5.9 0 1 833.87 131.84
  Q 815.86 131.19 808.88 130.85
  C 806.89 130.75 805.53 130.86 803.94 129.47
  A 2.01 1.98 60.4 0 0 802.29 129.00
  L 782.62 132.26
  A 1.41 1.40 80.6 0 1 781.01 131.10
  L 778.80 117.77
  A 0.99 0.98 85.1 0 0 777.83 116.95
  L 769.73 116.95
  A 0.83 0.82 8.6 0 0 768.94 117.53
  L 764.50 132.02
  A 1.11 1.10 -76.4 0 1 763.25 132.79
  Q 749.33 130.29 736.12 127.89
  Q 731.41 127.03 727.51 127.49
  Q 698.40 130.92 691.33 131.77
  A 1.57 1.57 0.0 0 1 689.57 130.30
  L 688.89 119.02
  A 0.03 0.03 0.0 0 0 688.83 119.01
  Z"
/>
<path fill="#000000" d="
  M 117.86 126.59
  L 117.54 131.15
  A 0.82 0.81 1.9 0 1 116.72 131.91
  L 48.24 131.91
  A 1.04 1.04 0.0 0 1 47.20 130.95
  C 46.31 118.75 47.89 108.53 49.22 95.00
  Q 49.33 93.87 49.94 91.43
  A 0.75 0.75 0.0 0 1 50.72 90.86
  L 54.19 91.10
  A 0.34 0.33 -15.8 0 0 54.49 90.57
  L 46.37 79.33
  A 4.00 3.96 -63.1 0 1 45.62 77.00
  L 45.62 66.59
  A 1.67 1.67 0.0 0 1 46.41 65.17
  L 72.38 49.36
  A 5.45 5.41 31.0 0 1 75.60 48.57
  L 101.19 50.34
  A 1.18 1.18 0.0 0 1 102.29 51.36
  C 102.83 55.47 102.76 61.64 102.24 66.18
  Q 100.89 77.83 99.45 90.22
  A 0.79 0.79 0.0 0 0 100.35 91.09
  L 106.52 90.17
  A 1.22 1.22 0.0 0 0 107.57 88.96
  C 107.53 70.39 107.36 58.86 108.12 49.84
  A 1.06 1.05 -87.9 0 1 109.16 48.87
  Q 121.91 48.77 134.75 48.84
  Q 140.08 48.87 144.73 49.33
  A 1.97 1.33 -22.3 0 1 145.07 49.40
  Q 146.47 49.85 146.37 52.31
  A 0.84 0.83 -89.0 0 0 147.20 53.18
  L 173.89 53.18
  A 0.57 0.56 -83.6 0 0 174.44 52.73
  Q 174.69 51.54 175.56 50.31
  A 1.53 1.51 13.2 0 1 176.61 49.67
  C 188.38 48.13 200.95 48.77 212.50 48.83
  Q 215.41 48.84 216.59 49.65
  Q 230.89 59.40 232.65 60.65
  A 2.60 2.59 10.8 0 1 233.67 62.15
  Q 234.31 64.73 234.49 68.50
  Q 235.57 90.12 235.59 90.75
  C 235.69 94.33 236.06 100.86 233.70 103.44
  Q 232.45 104.81 219.82 116.82
  Q 217.86 118.69 216.78 119.17
  A 2.59 2.49 -59.4 0 1 215.88 119.42
  L 204.16 120.42
  A 0.88 0.87 -90.0 0 0 203.36 121.23
  L 202.68 131.10
  A 1.13 1.13 0.0 0 1 201.55 132.16
  L 172.96 132.16
  A 1.36 1.36 0.0 0 1 171.60 130.85
  L 171.17 119.31
  A 0.27 0.27 0.0 0 0 170.70 119.14
  L 160.01 131.15
  A 3.05 3.04 -69.1 0 1 157.77 132.16
  Q 142.03 132.23 125.07 132.17
  C 121.19 132.15 120.74 127.84 118.50 126.28
  A 0.41 0.41 0.0 0 0 117.86 126.59
  Z"
/>
<path fill="#42b131" d="
  M 326.91 67.00
  L 309.04 82.76
  A 1.48 1.46 57.1 0 0 308.68 84.48
  L 321.84 113.09
  A 0.22 0.22 0.0 0 1 321.63 113.40
  L 291.18 111.89
  A 0.58 0.58 0.0 0 1 290.63 111.31
  Q 290.70 89.56 290.62 86.97
  C 290.58 85.75 288.97 84.46 287.99 83.51
  Q 277.91 73.65 270.92 67.41
  A 0.78 0.78 0.0 0 1 270.92 66.24
  L 282.51 56.02
  A 1.62 1.61 -42.2 0 1 284.76 56.13
  L 296.64 68.79
  A 0.50 0.50 0.0 0 0 297.40 68.76
  L 309.16 54.01
  A 0.83 0.82 -52.3 0 1 310.30 53.86
  L 326.89 66.45
  A 0.36 0.35 -47.3 0 1 326.91 67.00
  Z"
/>
<path fill="#42b131" d="
  M 740.33 107.56
  A 0.51 0.51 0.0 0 1 739.88 108.13
  L 696.24 113.27
  A 0.70 0.69 -4.6 0 1 695.46 112.61
  L 693.21 53.77
  A 0.36 0.35 2.8 0 1 693.61 53.41
  L 715.04 55.89
  A 0.68 0.68 0.0 0 1 715.65 56.61
  L 713.39 91.75
  A 0.45 0.45 0.0 0 0 713.89 92.22
  L 737.62 89.43
  A 0.62 0.62 0.0 0 1 738.31 89.98
  L 740.33 107.56
  Z"
/>
<path fill="#fccf00" d="
  M 139.22 94.24
  A 0.39 0.39 0.0 0 0 139.84 94.56
  L 148.92 88.00
  A 0.93 0.93 0.0 0 0 149.31 87.12
  L 145.94 59.02
  A 0.51 0.50 86.5 0 1 146.44 58.45
  L 170.40 58.45
  A 0.52 0.52 0.0 0 1 170.92 58.97
  Q 170.93 91.25 170.87 96.76
  Q 170.85 98.25 169.38 99.88
  Q 160.86 109.36 157.36 113.37
  A 3.05 3.04 -69.2 0 1 155.08 114.40
  L 126.79 114.40
  A 1.93 1.89 -18.9 0 1 125.29 113.68
  L 115.83 101.77
  A 5.02 4.98 21.3 0 1 114.81 99.47
  Q 114.10 95.16 114.10 88.75
  Q 114.10 84.60 114.09 54.85
  A 0.50 0.50 0.0 0 1 114.59 54.35
  L 139.50 54.35
  A 0.45 0.45 0.0 0 1 139.95 54.81
  L 139.22 94.24
  Z"
/>
<path fill="#fccf00" d="
  M 387.45 105.67
  A 0.55 0.55 0.0 0 1 387.05 106.11
  L 355.99 114.19
  A 1.17 1.14 57.6 0 1 354.93 113.94
  L 330.35 92.04
  A 0.88 0.87 25.9 0 1 330.06 91.22
  Q 330.49 88.67 333.10 71.13
  C 333.61 67.70 336.54 64.35 340.10 62.35
  Q 342.40 61.05 351.79 55.07
  A 4.90 4.85 29.0 0 1 354.46 54.32
  Q 357.53 54.38 372.04 55.01
  Q 374.25 55.10 375.44 55.77
  A 0.74 0.72 85.6 0 1 375.69 55.99
  L 391.61 76.04
  A 3.54 3.54 0.0 0 1 392.33 78.89
  L 387.45 105.67
  Z"
/>
<path fill="#e61e07" d="
  M 430.26 58.46
  L 453.32 58.46
  A 0.88 0.87 0.0 0 1 454.20 59.33
  L 454.20 96.66
  A 4.12 4.10 66.4 0 1 453.11 99.45
  Q 448.31 104.73 441.19 112.94
  Q 439.95 114.36 438.03 114.37
  Q 423.71 114.46 410.27 114.36
  A 2.07 2.06 70.1 0 1 408.72 113.63
  Q 402.93 106.82 398.34 100.95
  Q 397.18 99.45 397.27 96.51
  Q 397.71 83.28 397.75 82.99
  Q 398.36 78.44 397.65 71.06
  Q 397.29 67.26 397.64 54.97
  A 0.56 0.56 0.0 0 1 398.20 54.42
  L 421.85 54.42
  A 1.42 1.42 0.0 0 1 423.27 55.87
  L 422.56 94.23
  A 0.46 0.46 0.0 0 0 423.29 94.61
  L 431.91 88.39
  A 0.63 0.62 -20.7 0 0 432.17 87.83
  L 429.77 58.99
  A 0.49 0.49 0.0 0 1 430.26 58.46
  Z"
/>
<path fill="#fccf00" d="
  M 568.10 78.30
  Q 568.10 78.29 568.18 77.99
  A 0.34 0.32 74.4 0 1 568.27 77.82
  L 588.22 55.42
  A 3.09 3.08 20.7 0 1 590.53 54.38
  L 607.79 54.38
  A 2.60 2.59 68.3 0 1 609.68 55.20
  L 622.60 68.99
  A 1.03 1.03 0.0 0 1 622.66 70.34
  L 613.51 81.82
  A 0.79 0.77 -55.1 0 1 612.50 82.01
  L 601.64 75.53
  A 1.65 1.63 -55.1 0 0 599.52 75.92
  L 598.26 77.50
  A 1.32 1.31 -53.2 0 0 598.53 79.39
  L 618.86 93.92
  A 0.82 0.81 -58.4 0 1 619.10 94.96
  L 609.27 113.48
  A 1.61 1.61 0.0 0 1 607.87 114.33
  Q 590.63 114.41 585.79 114.38
  Q 582.85 114.36 581.79 113.54
  Q 573.07 106.78 565.14 100.37
  A 0.69 0.68 -55.5 0 1 564.98 99.48
  L 571.70 88.22
  A 1.41 1.41 0.0 0 1 573.58 87.70
  L 587.53 95.10
  A 1.04 1.02 -60.4 0 0 588.90 94.71
  L 589.90 93.03
  A 1.17 1.16 30.8 0 0 589.49 91.43
  L 568.46 78.97
  A 0.74 0.72 -74.1 0 1 568.10 78.30
  Z"
/>
<path fill="#fccf00" d="
  M 845.44 72.10
  L 846.30 54.75
  A 0.55 0.55 0.0 0 1 846.95 54.23
  L 864.51 57.43
  A 0.64 0.63 -82.9 0 1 865.03 58.10
  L 861.19 113.83
  A 0.53 0.53 0.0 0 1 860.62 114.32
  L 846.09 113.32
  A 1.08 1.07 -14.3 0 1 845.27 112.84
  L 834.38 96.05
  A 0.54 0.53 33.8 0 0 833.40 96.24
  L 830.20 113.85
  A 0.69 0.68 6.4 0 1 829.50 114.40
  L 819.07 113.88
  A 0.97 0.95 78.3 0 1 818.26 113.34
  Q 817.23 111.22 814.46 105.30
  C 813.33 102.88 813.20 101.23 813.68 98.52
  Q 814.55 93.66 821.67 54.66
  A 0.39 0.37 4.4 0 1 822.05 54.35
  L 833.20 54.35
  A 1.23 1.23 0.0 0 1 834.25 54.94
  L 844.81 72.26
  A 0.34 0.34 0.0 0 0 845.44 72.10
  Z"
/>
<path fill="#009cd9" d="
  M 74.23 97.20
  L 74.23 76.81
  A 0.58 0.58 0.0 0 0 73.33 76.32
  L 64.97 81.74
  A 1.03 1.03 0.0 0 1 63.57 81.48
  L 53.89 68.07
  A 0.65 0.64 56.6 0 1 54.08 67.14
  Q 66.72 59.52 72.47 55.97
  Q 75.32 54.21 77.50 54.46
  Q 79.62 54.71 95.32 55.42
  A 0.64 0.64 0.0 0 1 95.93 56.13
  L 91.35 97.30
  A 0.34 0.33 -0.7 0 0 91.73 97.67
  L 107.98 95.72
  A 0.60 0.60 0.0 0 1 108.65 96.25
  L 110.75 113.75
  A 0.56 0.56 0.0 0 1 110.19 114.38
  L 54.02 114.38
  A 0.72 0.72 0.0 0 1 53.30 113.58
  L 55.11 97.33
  A 0.56 0.56 0.0 0 1 55.70 96.83
  L 73.69 97.72
  A 0.52 0.52 0.0 0 0 74.23 97.20
  Z"
/>
<path fill="#e61e07" d="
  M 196.69 114.06
  A 0.34 0.34 0.0 0 1 196.35 114.40
  L 178.35 114.40
  A 0.43 0.43 0.0 0 1 177.92 113.95
  L 180.84 55.14
  A 0.61 0.61 0.0 0 1 181.44 54.56
  Q 195.72 54.27 211.74 54.48
  Q 213.87 54.50 215.56 55.69
  Q 221.52 59.86 227.42 63.80
  A 1.39 1.39 0.0 0 1 228.04 64.92
  L 228.89 87.22
  A 2.41 2.39 -22.8 0 1 228.13 89.06
  L 215.49 100.91
  A 4.69 4.68 -67.6 0 1 212.43 102.19
  L 197.57 102.76
  A 0.91 0.91 0.0 0 0 196.69 103.67
  L 196.69 114.06
  Z"
/>
<path fill="#42b131" d="
  M 517.22 106.40
  A 0.40 0.39 -35.8 0 1 517.11 107.06
  L 500.63 114.05
  A 0.82 0.82 0.0 0 1 499.78 113.93
  Q 492.15 107.56 483.41 100.01
  Q 482.76 99.44 482.48 99.39
  A 0.42 0.42 0.0 0 0 481.98 99.87
  L 484.36 113.85
  A 0.40 0.39 -4.7 0 1 483.96 114.31
  L 466.49 114.29
  A 0.59 0.58 -2.0 0 1 465.90 113.75
  L 461.30 57.87
  A 0.84 0.84 0.0 0 1 462.07 56.96
  L 493.27 54.40
  A 3.50 3.48 60.2 0 1 495.60 55.04
  L 508.89 64.55
  A 2.08 2.06 15.7 0 1 509.74 66.06
  L 511.10 82.53
  A 3.49 3.48 63.5 0 1 510.24 85.12
  L 503.32 92.87
  A 0.86 0.85 -48.5 0 0 503.39 94.06
  L 517.22 106.40
  Z"
/>
<path fill="#009cd9" d="
  M 681.89 106.20
  L 651.12 114.22
  A 0.91 0.91 0.0 0 1 650.29 114.02
  Q 636.30 101.66 627.64 94.07
  Q 626.28 92.88 625.43 91.16
  A 2.09 2.08 37.5 0 1 625.25 89.82
  Q 626.49 83.70 626.90 79.40
  Q 627.52 73.02 630.20 69.64
  A 0.84 0.84 0.0 0 0 630.20 68.60
  L 629.39 67.57
  A 1.04 1.04 0.0 0 1 629.63 66.05
  Q 636.38 61.57 646.98 54.96
  Q 648.10 54.26 653.00 54.46
  Q 656.37 54.60 668.38 55.10
  A 3.83 3.82 -18.1 0 1 671.22 56.54
  L 687.19 76.65
  A 1.69 1.69 0.0 0 1 687.52 78.00
  L 682.51 105.53
  A 0.86 0.83 88.5 0 1 681.89 106.20
  Z"
/>
<path fill="#009cd9" d="
  M 810.22 110.20
  L 786.75 114.09
  A 0.71 0.71 0.0 0 1 785.93 113.48
  L 784.51 101.61
  A 1.51 1.51 0.0 0 0 783.05 100.29
  L 764.80 99.95
  A 0.41 0.41 0.0 0 0 764.41 100.24
  L 760.29 113.67
  A 0.86 0.85 13.4 0 1 759.32 114.26
  L 746.99 112.01
  A 0.38 0.36 1.4 0 1 746.69 111.71
  Q 745.51 104.34 745.05 100.00
  C 744.82 97.79 745.02 96.22 746.19 94.14
  C 752.03 83.73 758.74 72.94 768.13 57.17
  A 3.01 2.98 -76.8 0 1 770.44 55.72
  L 784.14 54.59
  A 1.36 1.35 75.0 0 1 785.48 55.37
  L 810.48 109.71
  A 0.35 0.35 0.0 0 1 810.22 110.20
  Z"
/>
<path fill="#e61e07" d="
  M 932.11 110.27
  L 908.60 114.17
  A 0.41 0.41 0.0 0 1 908.13 113.82
  L 906.23 100.97
  A 0.73 0.72 86.2 0 0 905.53 100.35
  L 888.11 100.03
  A 2.22 2.22 0.0 0 0 885.95 101.60
  L 882.27 113.60
  A 0.93 0.93 0.0 0 1 881.22 114.24
  L 867.34 111.71
  A 0.43 0.42 -83.0 0 1 867.00 111.27
  Q 867.76 99.02 868.10 96.08
  Q 868.42 93.32 870.44 89.95
  Q 880.24 73.66 889.99 57.39
  A 2.78 2.77 -78.0 0 1 892.05 56.05
  L 905.48 54.44
  A 1.93 1.93 0.0 0 1 907.47 55.55
  L 932.40 109.72
  A 0.39 0.39 0.0 0 1 932.11 110.27
  Z"
/>
<path fill="#000000" d="
  M 481.69 72.36
  A 0.72 0.71 -75.5 0 1 482.74 71.74
  L 490.51 75.86
  A 0.90 0.90 0.0 0 1 490.82 77.17
  L 486.75 82.86
  A 1.05 1.05 0.0 0 1 485.87 83.31
  L 483.18 83.26
  A 1.70 1.69 1.2 0 1 481.52 81.54
  L 481.69 72.36
  Z"
/>
<path fill="#000000" d="
  M 200.56 73.03
  L 210.26 74.79
  A 0.97 0.97 0.0 0 1 210.81 76.39
  Q 207.36 80.21 206.98 80.74
  C 204.89 83.58 202.58 83.87 199.94 82.59
  A 0.97 0.96 -75.5 0 1 199.40 81.66
  L 199.97 73.49
  A 0.50 0.50 0.0 0 1 200.56 73.03
  Z"
/>
<path fill="#000000" d="
  M 770.32 83.47
  A 0.25 0.25 0.0 0 1 770.09 83.20
  L 770.10 83.04
  A 8.41 5.04 -85.5 0 1 775.79 75.05
  L 776.92 75.14
  A 8.41 5.04 -85.5 0 1 781.29 83.92
  L 781.28 84.08
  A 0.25 0.25 0.0 0 1 781.01 84.31
  L 770.32 83.47
  Z"
/>
<path fill="#000000" d="
  M 892.20 83.40
  A 0.28 0.28 0.0 0 1 891.95 83.10
  L 891.97 82.89
  A 8.51 5.68 -84.8 0 1 898.40 74.93
  A 8.51 5.68 -84.8 0 1 903.28 83.92
  L 903.26 84.13
  A 0.28 0.28 0.0 0 1 902.96 84.38
  L 892.20 83.40
  Z"
/>
<path fill="#000000" d="
  M 358.25 75.72
  L 366.88 77.29
  A 1.10 1.10 0.0 0 1 367.78 78.33
  L 368.07 85.95
  A 1.10 1.10 0.0 0 1 367.32 87.03
  L 361.19 89.12
  A 1.10 1.10 0.0 0 1 360.27 89.02
  L 354.23 85.41
  A 1.10 1.10 0.0 0 1 353.78 84.04
  L 357.05 76.37
  A 1.10 1.10 0.0 0 1 358.25 75.72
  Z"
/>
<path fill="#000000" d="
  M 649.26 85.16
  A 1.07 1.06 29.1 0 1 648.88 83.86
  L 652.44 75.89
  A 0.78 0.77 18.6 0 1 653.32 75.47
  L 662.14 77.54
  A 1.04 1.04 0.0 0 1 662.94 78.51
  L 663.18 85.68
  A 1.53 1.51 79.9 0 1 662.16 87.16
  L 656.48 89.07
  A 1.97 1.95 -37.1 0 1 654.76 88.84
  L 649.26 85.16
  Z"
/>
<path fill="#000000" d="
  M 632.76 223.97
  L 632.58 227.67
  A 1.58 1.58 0.0 0 1 631.00 229.17
  L 600.21 229.17
  A 1.36 1.36 0.0 0 1 598.85 227.86
  L 598.31 213.70
  A 0.23 0.23 0.0 0 0 597.87 213.60
  L 590.24 227.96
  A 1.78 1.77 -76.1 0 1 588.67 228.91
  L 559.82 228.91
  A 4.66 4.60 64.0 0 1 556.94 227.90
  L 535.91 211.14
  A 3.26 3.23 -70.9 0 1 534.69 208.60
  L 534.69 198.82
  A 2.10 2.02 60.1 0 1 534.93 197.85
  L 538.46 191.20
  A 1.02 1.01 -57.2 0 0 538.19 189.93
  Q 537.34 189.25 536.92 188.66
  A 2.10 2.04 -63.5 0 1 536.56 187.52
  L 536.48 177.34
  A 2.92 2.89 -24.5 0 1 537.22 175.38
  Q 546.02 165.55 562.63 146.89
  Q 563.91 145.45 565.75 145.43
  Q 580.34 145.29 587.92 145.42
  A 2.03 1.99 68.4 0 1 589.36 146.06
  L 598.81 156.14
  A 0.35 0.35 0.0 0 0 599.41 155.94
  L 600.47 146.40
  A 0.66 0.65 -86.5 0 1 601.12 145.82
  L 627.61 145.82
  A 1.47 1.46 86.4 0 1 629.06 147.11
  L 629.49 150.71
  A 0.35 0.35 0.0 0 0 630.10 150.90
  Q 631.88 148.84 633.62 146.64
  Q 635.11 144.74 636.75 146.48
  Q 641.58 151.61 648.23 158.49
  C 649.50 159.79 650.33 161.36 651.05 161.87
  A 0.51 0.51 0.0 0 0 651.86 161.46
  C 651.84 156.93 651.49 151.42 652.69 147.14
  A 1.04 1.03 -83.9 0 1 653.61 146.39
  L 678.24 144.34
  A 0.74 0.73 -8.0 0 1 679.02 144.92
  L 685.38 174.91
  A 0.12 0.12 0.0 0 0 685.61 174.89
  C 685.96 166.41 684.26 155.06 685.61 145.23
  A 0.86 0.85 -83.1 0 1 686.55 144.49
  L 718.93 148.09
  A 1.53 1.52 -0.2 0 1 720.27 149.41
  Q 720.97 154.85 720.66 161.75
  Q 720.27 170.47 719.34 182.34
  A 0.58 0.58 0.0 0 0 719.99 182.96
  L 740.88 180.46
  A 0.53 0.53 0.0 0 0 741.35 179.90
  Q 740.65 167.02 740.49 155.50
  Q 740.42 150.39 741.02 145.68
  A 1.29 1.29 0.0 0 1 742.44 144.56
  L 774.92 148.17
  A 0.84 0.83 0.4 0 1 775.65 148.91
  C 776.71 159.42 775.60 169.62 774.70 182.30
  A 0.63 0.62 -1.5 0 0 775.40 182.96
  L 796.92 180.38
  A 0.47 0.46 81.3 0 0 797.32 179.83
  Q 796.84 177.22 797.82 175.56
  A 1.34 0.68 -81.4 0 1 797.97 175.35
  L 823.71 146.39
  A 3.01 2.98 20.6 0 1 825.95 145.39
  L 848.39 145.39
  A 2.25 2.23 -21.4 0 1 850.02 146.09
  L 858.20 154.82
  A 0.41 0.41 0.0 0 0 858.90 154.54
  L 858.90 146.09
  A 2.19 2.18 -3.4 0 1 860.83 143.92
  L 886.22 140.88
  A 0.97 0.97 0.0 0 1 887.30 141.69
  Q 888.13 147.01 888.24 151.75
  Q 888.59 166.90 889.60 199.15
  A 5.57 5.21 38.7 0 0 889.77 200.32
  C 891.40 206.22 891.56 213.40 889.70 219.64
  Q 887.66 226.51 887.31 227.46
  A 1.44 1.44 0.0 0 1 886.02 228.40
  L 874.54 228.84
  A 2.55 2.54 -19.6 0 1 872.41 227.83
  Q 869.46 223.95 866.78 220.46
  Q 865.07 218.22 864.87 216.52
  Q 863.96 208.73 866.04 201.87
  A 1.34 1.31 50.1 0 0 866.08 201.36
  L 865.12 193.35
  A 0.29 0.28 -48.7 0 0 864.55 193.39
  L 864.55 200.65
  A 5.81 5.76 -31.3 0 1 863.88 203.35
  L 850.93 227.75
  A 2.18 2.16 13.9 0 1 849.01 228.90
  L 820.30 228.90
  A 4.10 4.10 0.0 0 1 817.75 228.01
  L 801.81 215.31
  A 0.41 0.41 0.0 0 0 801.14 215.61
  L 800.86 221.29
  A 0.98 0.97 -2.1 0 1 800.00 222.21
  L 744.98 228.81
  A 1.16 1.16 0.0 0 1 743.69 227.80
  L 743.13 223.14
  A 0.76 0.76 0.0 0 0 742.29 222.48
  L 689.57 228.80
  A 0.97 0.96 80.2 0 1 688.51 228.05
  L 688.12 226.20
  A 1.25 1.24 80.4 0 0 686.75 225.22
  L 655.81 228.93
  A 0.78 0.77 -6.7 0 1 654.95 228.26
  L 653.75 218.23
  A 0.34 0.34 0.0 0 0 653.16 218.05
  Q 652.00 219.44 641.92 230.19
  Q 640.52 231.69 638.96 229.69
  Q 638.02 228.47 633.44 223.72
  A 0.40 0.39 24.8 0 0 632.76 223.97
  Z
  M 651.87 180.36
  L 648.07 184.62
  A 0.90 0.90 0.0 0 0 648.22 185.95
  L 652.03 188.67
  A 0.51 0.51 0.0 0 0 652.83 188.25
  L 652.64 180.64
  A 0.44 0.44 0.0 0 0 651.87 180.36
  Z
  M 864.29 189.58
  L 863.55 185.11
  A 0.35 0.35 0.0 0 0 862.91 184.98
  Q 861.92 186.52 861.88 187.13
  Q 861.84 187.88 863.05 188.53
  Q 863.90 188.99 864.08 189.63
  A 0.11 0.11 0.0 0 0 864.29 189.58
  Z
  M 799.0559 189.7703
  A 0.92 0.34 -91.5 0 0 798.7401 190.6989
  A 0.92 0.34 -91.5 0 0 799.1041 191.6097
  A 0.92 0.34 -91.5 0 0 799.4199 190.6811
  A 0.92 0.34 -91.5 0 0 799.0559 189.7703
  Z"
/>
<path fill="#000000" d="
  M 284.09 179.16
  Q 284.14 164.75 284.14 160.76
  Q 284.14 155.52 284.89 150.74
  A 1.27 1.26 -88.8 0 1 285.99 149.68
  L 321.04 145.47
  A 2.37 2.34 -28.8 0 1 322.80 145.97
  L 339.20 159.04
  A 0.43 0.42 -70.9 0 0 339.89 158.70
  C 339.88 155.26 339.50 150.03 340.91 146.89
  A 0.83 0.83 0.0 0 1 341.60 146.40
  L 365.46 144.42
  A 1.70 1.70 0.0 0 1 367.27 145.76
  L 376.70 190.24
  A 0.29 0.29 0.0 0 0 377.27 190.23
  L 385.12 147.09
  A 1.92 1.91 -84.7 0 1 387.00 145.52
  L 404.38 145.52
  A 2.70 2.69 76.9 0 1 406.80 147.03
  Q 407.60 148.65 408.33 149.41
  A 0.40 0.40 0.0 0 0 409.01 149.20
  L 409.62 145.85
  A 1.10 1.09 -80.5 0 1 410.86 144.96
  L 438.69 149.19
  A 1.54 1.54 0.0 0 1 440.00 150.59
  L 440.62 158.12
  A 0.49 0.49 0.0 0 0 441.40 158.47
  Q 447.06 154.17 457.88 146.37
  Q 459.47 145.22 461.51 145.38
  Q 474.72 146.40 484.03 147.00
  A 2.58 2.56 73.8 0 1 485.94 148.06
  L 497.33 163.84
  A 4.18 4.18 0.0 0 1 498.13 166.30
  Q 498.08 192.56 498.07 215.25
  Q 498.07 218.82 497.39 222.53
  A 0.80 0.79 1.4 0 1 496.70 223.18
  L 448.29 228.99
  A 0.61 0.60 -15.3 0 1 447.67 228.64
  L 438.19 208.04
  A 0.31 0.30 35.9 0 0 437.61 208.13
  L 435.37 228.28
  A 0.75 0.75 0.0 0 1 434.57 228.94
  L 411.39 227.34
  A 0.83 0.81 -14.0 0 1 410.76 226.97
  L 406.21 219.96
  A 0.40 0.39 -56.4 0 0 405.49 220.11
  L 404.04 228.09
  A 0.91 0.90 6.2 0 1 403.11 228.83
  Q 378.71 227.99 375.50 227.79
  Q 373.47 227.67 372.87 226.52
  Q 372.45 225.72 371.56 225.81
  Q 360.12 226.98 344.25 228.78
  A 1.35 1.35 0.0 0 1 342.75 227.55
  L 341.89 217.21
  A 0.57 0.56 -21.8 0 0 340.97 216.82
  L 326.87 228.01
  A 2.72 2.71 -64.5 0 1 325.21 228.60
  Q 306.28 228.76 286.24 228.57
  Q 284.99 228.56 284.64 226.61
  A 1.04 1.03 80.2 0 0 283.45 225.76
  L 262.16 229.29
  A 1.12 1.11 -9.3 0 1 260.88 228.38
  L 258.66 214.97
  A 1.13 1.12 -4.0 0 0 257.57 214.03
  L 249.75 213.88
  A 1.38 1.38 0.0 0 0 248.40 214.86
  L 244.07 228.99
  A 1.15 1.15 0.0 0 1 242.77 229.78
  L 219.94 225.62
  A 5.41 5.38 38.4 0 0 216.85 225.97
  L 208.31 229.60
  A 1.21 1.20 -37.3 0 1 207.09 229.44
  L 200.22 223.96
  A 0.38 0.37 18.6 0 0 199.61 224.26
  Q 199.66 226.75 199.18 228.32
  A 0.85 0.85 0.0 0 1 198.37 228.91
  L 169.40 228.91
  A 0.85 0.84 -2.2 0 1 168.55 228.13
  L 165.87 195.89
  A 1.31 1.30 2.3 0 0 164.77 194.71
  L 150.70 192.58
  A 0.77 0.77 0.0 0 0 149.82 193.44
  Q 152.10 209.18 152.49 211.30
  C 153.48 216.65 153.30 223.28 152.99 228.26
  A 0.70 0.70 0.0 0 1 152.29 228.92
  L 112.44 228.92
  A 1.11 1.11 0.0 0 1 111.33 227.91
  C 110.88 223.29 110.88 217.96 111.44 213.07
  Q 113.21 197.64 113.94 191.46
  A 0.85 0.84 -84.8 0 0 113.16 190.52
  L 96.27 189.35
  A 0.58 0.57 87.5 0 1 95.74 188.86
  Q 95.11 184.33 94.97 175.75
  Q 94.72 159.84 95.57 146.01
  A 0.57 0.56 -87.3 0 1 96.14 145.48
  L 165.55 146.77
  A 1.04 1.03 -18.7 0 1 166.33 147.15
  L 167.05 148.02
  A 1.63 1.63 0.0 0 0 168.45 148.62
  C 174.34 148.39 184.17 147.44 202.50 146.00
  Q 204.71 145.83 205.85 146.65
  Q 214.65 153.01 222.73 158.75
  A 3.23 3.22 -74.5 0 1 224.06 161.11
  L 225.60 179.66
  A 0.20 0.19 -32.1 0 0 225.96 179.74
  L 244.55 148.58
  A 1.78 1.77 -77.9 0 1 245.88 147.71
  L 266.85 145.19
  A 1.66 1.65 -15.6 0 1 268.55 146.14
  L 283.77 179.23
  A 0.17 0.17 0.0 0 0 284.09 179.16
  Z"
/>
<path fill="#42b131" d="
  M 882.44 194.13
  L 873.54 194.87
  A 0.36 0.36 0.0 0 1 873.16 194.57
  L 865.73 149.80
  A 0.36 0.36 0.0 0 1 866.04 149.39
  L 881.23 147.57
  A 0.36 0.36 0.0 0 1 881.63 147.92
  L 882.77 193.76
  A 0.36 0.36 0.0 0 1 882.44 194.13
  Z"
/>
<path fill="#fccf00" d="
  M 346.97 151.44
  L 361.67 150.22
  A 0.56 0.56 0.0 0 1 362.26 150.66
  L 374.17 206.80
  A 0.56 0.56 0.0 0 1 373.69 207.47
  L 349.27 210.41
  A 0.56 0.56 0.0 0 1 348.65 209.87
  L 346.46 152.02
  A 0.56 0.56 0.0 0 1 346.97 151.44
  Z"
/>
<path fill="#42b131" d="
  M 693.92 209.98
  L 691.69 150.89
  A 0.41 0.41 0.0 0 1 692.14 150.46
  L 713.85 152.88
  A 0.41 0.41 0.0 0 1 714.21 153.31
  L 711.76 188.84
  A 0.41 0.41 0.0 0 0 712.22 189.27
  L 736.24 186.39
  A 0.41 0.41 0.0 0 1 736.70 186.75
  L 738.84 204.61
  A 0.41 0.41 0.0 0 1 738.48 205.07
  L 694.38 210.37
  A 0.41 0.41 0.0 0 1 693.92 209.98
  Z"
/>
<path fill="#e61e07" d="
  M 658.46 152.00
  A 0.46 0.45 86.8 0 1 658.88 151.52
  L 673.44 150.31
  A 0.83 0.82 -8.3 0 1 674.32 150.96
  L 686.10 206.54
  A 0.78 0.78 0.0 0 1 685.43 207.48
  L 661.30 210.38
  A 0.65 0.64 -4.6 0 1 660.58 209.77
  Q 660.34 204.15 660.28 200.00
  Q 660.26 198.95 661.70 196.61
  A 0.91 0.90 40.3 0 0 661.61 195.55
  L 660.40 194.19
  A 1.58 1.52 -67.6 0 1 660.02 193.22
  L 658.46 152.00
  Z"
/>
<path fill="#fccf00" d="
  M 794.24 204.55
  A 0.51 0.51 0.0 0 1 793.79 205.12
  L 750.14 210.26
  A 0.70 0.69 -4.6 0 1 749.36 209.60
  L 747.11 150.75
  A 0.36 0.35 2.8 0 1 747.51 150.39
  L 768.95 152.87
  A 0.68 0.68 0.0 0 1 769.56 153.59
  L 767.29 188.73
  A 0.45 0.45 0.0 0 0 767.79 189.20
  L 791.53 186.41
  A 0.62 0.62 0.0 0 1 792.22 186.96
  L 794.24 204.55
  Z"
/>
<path fill="#009cd9" d="
  M 413.33 168.93
  A 0.62 0.62 0.0 0 0 414.47 168.62
  L 414.78 151.91
  A 0.45 0.45 0.0 0 1 415.29 151.47
  L 432.89 154.15
  A 1.04 1.03 -84.0 0 1 433.77 155.24
  L 429.93 210.83
  A 0.56 0.56 0.0 0 1 429.33 211.35
  L 415.17 210.38
  A 1.71 1.69 -14.3 0 1 413.86 209.61
  L 403.28 193.29
  A 0.68 0.67 -56.4 0 0 402.05 193.54
  L 398.96 210.53
  A 0.99 0.98 6.3 0 1 397.94 211.34
  Q 388.67 210.88 382.55 210.64
  Q 379.90 210.54 380.38 207.74
  Q 383.59 188.88 390.30 152.04
  A 0.81 0.80 5.1 0 1 391.10 151.38
  L 401.48 151.38
  A 2.08 2.08 0.0 0 1 403.25 152.37
  L 413.33 168.93
  Z"
/>
<path fill="#42b131" d="
  M 476.13 171.42
  L 471.08 168.73
  A 0.63 0.63 0.0 0 0 470.62 168.67
  L 462.87 170.69
  A 0.63 0.63 0.0 0 0 462.45 171.05
  L 457.64 182.32
  A 0.63 0.63 0.0 0 0 457.65 182.83
  L 462.43 193.22
  A 0.63 0.63 0.0 0 0 463.08 193.59
  L 477.13 191.90
  A 0.63 0.63 0.0 0 0 477.69 191.32
  L 477.80 189.73
  A 0.63 0.63 0.0 0 0 477.09 189.06
  L 467.34 190.23
  A 0.63 0.63 0.0 0 1 466.63 189.56
  L 467.65 174.79
  A 0.63 0.63 0.0 0 1 468.28 174.20
  L 491.26 174.20
  A 0.63 0.63 0.0 0 1 491.89 174.83
  L 491.89 205.79
  A 0.63 0.63 0.0 0 1 491.34 206.42
  L 451.61 211.19
  A 0.63 0.63 0.0 0 1 450.96 210.82
  L 439.70 186.36
  A 0.63 0.63 0.0 0 1 439.66 185.98
  L 443.63 164.14
  A 0.63 0.63 0.0 0 1 443.89 163.74
  L 460.84 151.49
  A 0.63 0.63 0.0 0 1 461.25 151.38
  L 481.83 152.79
  A 0.63 0.63 0.0 0 1 482.29 153.05
  L 489.60 163.17
  A 0.63 0.63 0.0 0 1 489.41 164.09
  L 476.74 171.41
  A 0.63 0.63 0.0 0 1 476.13 171.42
  Z"
/>
<path fill="#009cd9" d="
  M 545.44 175.30
  Q 545.44 175.29 545.52 174.99
  A 0.34 0.32 74.4 0 1 545.61 174.82
  L 565.56 152.41
  A 3.09 3.08 20.7 0 1 567.87 151.37
  L 585.13 151.37
  A 2.60 2.59 68.3 0 1 587.02 152.19
  L 599.94 165.98
  A 1.03 1.03 0.0 0 1 600.00 167.33
  L 590.85 178.81
  A 0.79 0.77 -55.1 0 1 589.84 179.00
  L 578.98 172.52
  A 1.65 1.63 -55.1 0 0 576.86 172.91
  L 575.60 174.49
  A 1.32 1.31 -53.2 0 0 575.87 176.38
  L 596.20 190.91
  A 0.82 0.81 -58.4 0 1 596.44 191.95
  L 586.62 210.47
  A 1.61 1.61 0.0 0 1 585.22 211.32
  Q 567.98 211.41 563.14 211.38
  Q 560.20 211.36 559.14 210.54
  Q 550.41 203.78 542.48 197.37
  A 0.69 0.68 -55.5 0 1 542.32 196.48
  L 549.04 185.22
  A 1.41 1.41 0.0 0 1 550.92 184.70
  L 564.87 192.10
  A 1.04 1.02 -60.4 0 0 566.24 191.70
  L 567.24 190.02
  A 1.17 1.16 30.8 0 0 566.83 188.42
  L 545.80 175.97
  A 0.74 0.72 -74.1 0 1 545.44 175.30
  Z"
/>
<path fill="#fccf00" d="
  M 640.35 210.83
  Q 633.78 204.08 624.21 193.30
  Q 623.63 192.65 623.19 192.59
  A 0.38 0.38 0.0 0 0 622.77 193.03
  L 625.74 210.94
  A 0.38 0.38 0.0 0 1 625.37 211.38
  L 605.66 211.38
  A 0.61 0.61 0.0 0 1 605.05 210.75
  Q 605.26 199.36 605.76 173.01
  Q 605.84 168.79 607.25 166.73
  A 0.88 0.86 50.6 0 0 607.32 165.90
  L 606.05 163.03
  A 0.24 0.08 63.4 0 1 606.04 162.96
  L 606.16 152.00
  A 0.67 0.66 -0.0 0 1 606.83 151.34
  L 622.59 151.34
  A 0.47 0.47 0.0 0 1 623.06 151.82
  L 622.79 166.53
  A 0.35 0.35 0.0 0 0 623.40 166.77
  L 634.85 153.91
  A 0.87 0.87 0.0 0 1 636.13 153.90
  L 646.33 164.77
  A 0.88 0.88 0.0 0 1 646.34 165.96
  L 632.77 181.20
  A 0.43 0.42 -51.8 0 0 632.84 181.83
  L 653.51 196.60
  A 0.38 0.37 -51.7 0 1 653.57 197.16
  L 641.41 210.81
  A 0.72 0.72 0.0 0 1 640.35 210.83
  Z"
/>
<path fill="#42b131" d="
  M 140.97 173.71
  L 146.46 210.80
  A 0.44 0.44 0.0 0 1 146.02 211.30
  L 118.14 211.30
  A 0.44 0.44 0.0 0 1 117.70 210.81
  L 121.81 173.93
  A 0.44 0.44 0.0 0 0 121.40 173.44
  L 101.80 172.09
  A 0.44 0.44 0.0 0 1 101.39 171.65
  L 101.39 151.80
  A 0.44 0.44 0.0 0 1 101.84 151.36
  L 160.72 152.45
  A 0.44 0.44 0.0 0 1 161.15 152.89
  L 161.15 176.26
  A 0.44 0.44 0.0 0 1 160.63 176.70
  L 141.48 173.21
  A 0.44 0.44 0.0 0 0 140.97 173.71
  Z"
/>
<path fill="#fccf00" d="
  M 225.44 204.10
  L 208.95 211.11
  A 0.83 0.82 52.9 0 1 208.10 210.99
  Q 200.45 204.62 191.70 197.07
  Q 191.05 196.50 190.77 196.45
  A 0.42 0.42 0.0 0 0 190.27 196.93
  L 192.66 210.92
  A 0.40 0.39 -4.8 0 1 192.26 211.38
  L 174.77 211.38
  A 0.59 0.58 -2.1 0 1 174.18 210.84
  L 169.53 154.90
  A 0.84 0.84 0.0 0 1 170.30 153.99
  L 201.53 151.40
  A 3.51 3.48 60.2 0 1 203.86 152.04
  L 217.17 161.55
  A 2.08 2.07 15.6 0 1 218.03 163.06
  L 219.40 179.55
  A 3.49 3.48 63.5 0 1 218.54 182.14
  L 211.62 189.90
  A 0.86 0.85 -48.6 0 0 211.69 191.10
  L 225.55 203.44
  A 0.40 0.40 0.0 0 1 225.44 204.10
  Z"
/>
<path fill="#e61e07" d="
  M 227.74 209.22
  A 0.20 0.20 0.0 0 1 227.72 208.84
  L 234.03 206.70
  A 1.49 1.49 0.0 0 0 234.54 204.18
  L 224.89 195.58
  A 1.89 1.89 0.0 0 1 224.52 193.20
  L 247.71 154.33
  A 3.36 3.36 0.0 0 1 250.30 152.71
  L 263.38 151.63
  A 1.95 1.94 -14.7 0 1 265.32 152.76
  L 289.98 206.35
  A 0.71 0.71 0.0 0 1 289.45 207.35
  L 266.44 211.17
  A 0.64 0.64 0.0 0 1 265.70 210.62
  L 264.26 198.62
  A 1.43 1.42 87.0 0 0 262.87 197.36
  L 244.74 197.02
  A 0.73 0.72 9.0 0 0 244.03 197.53
  L 240.08 210.42
  A 1.09 1.08 13.4 0 1 238.86 211.17
  Q 229.70 209.64 227.74 209.22
  Z"
/>
<path fill="#42b131" d="
  M 297.95 210.78
  Q 295.74 205.36 292.22 198.06
  Q 290.66 194.82 290.65 190.57
  Q 290.62 168.61 290.71 155.51
  A 0.62 0.61 -3.1 0 1 291.26 154.90
  L 318.85 151.59
  A 3.40 3.34 60.4 0 1 321.35 152.30
  L 336.36 164.26
  A 2.50 2.49 -74.3 0 1 337.29 165.93
  L 341.02 196.99
  A 1.32 1.32 0.0 0 1 340.51 198.18
  Q 334.19 202.90 326.96 209.20
  C 325.38 210.58 324.01 211.33 321.86 211.33
  Q 308.46 211.37 298.72 211.31
  A 0.85 0.85 0.0 0 1 297.95 210.78
  Z"
/>
<path fill="#e61e07" d="
  M 806.10 175.35
  Q 806.10 175.34 806.18 175.04
  A 0.34 0.32 74.4 0 1 806.27 174.87
  L 826.21 152.47
  A 3.09 3.08 20.7 0 1 828.52 151.43
  L 845.77 151.42
  A 2.60 2.59 68.3 0 1 847.66 152.24
  L 860.59 166.03
  A 1.03 1.03 0.0 0 1 860.65 167.38
  L 851.50 178.86
  A 0.79 0.77 -55.1 0 1 850.49 179.05
  L 839.63 172.57
  A 1.65 1.63 -55.1 0 0 837.51 172.96
  L 836.25 174.54
  A 1.32 1.31 -53.2 0 0 836.52 176.43
  L 856.85 190.95
  A 0.82 0.81 -58.4 0 1 857.09 191.99
  L 847.27 210.51
  A 1.61 1.61 0.0 0 1 845.87 211.36
  Q 828.63 211.45 823.80 211.42
  Q 820.86 211.40 819.80 210.58
  Q 811.08 203.83 803.14 197.42
  A 0.69 0.68 -55.6 0 1 802.98 196.53
  L 809.70 185.27
  A 1.41 1.41 0.0 0 1 811.58 184.75
  L 825.53 192.14
  A 1.04 1.02 -60.4 0 0 826.90 191.75
  L 827.90 190.07
  A 1.17 1.16 30.8 0 0 827.49 188.47
  L 806.46 176.02
  A 0.74 0.72 -74.1 0 1 806.10 175.35
  Z"
/>
<path fill="#000000" d="
  M 189.80 169.34
  A 0.71 0.71 0.0 0 1 190.85 168.73
  L 198.53 172.90
  A 0.89 0.89 0.0 0 1 198.83 174.21
  L 194.73 179.83
  A 1.04 1.04 0.0 0 1 193.85 180.27
  L 191.18 180.19
  A 1.69 1.68 1.7 0 1 189.55 178.47
  L 189.80 169.34
  Z"
/>
<path fill="#000000" d="
  M 250.01 180.53
  A 0.27 0.27 0.0 0 1 249.76 180.24
  L 249.77 180.08
  A 8.57 5.33 -85.4 0 1 255.77 171.97
  L 256.41 172.02
  A 8.57 5.33 -85.4 0 1 261.04 180.99
  L 261.02 181.15
  A 0.27 0.27 0.0 0 1 260.73 181.40
  L 250.01 180.53
  Z"
/>
<path fill="#000000" d="
  M 319.77 186.94
  L 309.79 190.34
  A 0.52 0.52 0.0 0 1 309.10 189.84
  L 309.10 173.89
  A 0.52 0.52 0.0 0 1 309.82 173.41
  L 319.80 177.67
  A 0.52 0.52 0.0 0 1 320.12 178.14
  L 320.12 186.45
  A 0.52 0.52 0.0 0 1 319.77 186.94
  Z"
/>
<path fill="#42b131" d="
  M 882.27 210.83
  C 880.63 211.79 876.36 211.70 875.15 210.16
  Q 874.03 208.74 871.97 205.59
  A 1.53 1.52 -50.0 0 1 871.85 204.16
  L 873.30 200.77
  A 1.99 1.98 -80.8 0 1 874.96 199.57
  L 880.56 199.10
  A 1.87 1.85 -22.0 0 1 882.12 199.75
  C 885.12 203.35 884.08 206.03 882.87 210.07
  A 1.32 1.31 83.5 0 1 882.27 210.83
  Z"
/>
</svg>
