<svg width="24" height="24" viewBox="0 0 24 24" fill="none" xmlns="http://www.w3.org/2000/svg">
  <path d="M12 24C18.6274 24 24 18.6274 24 12C24 5.37258 18.6274 0 12 0C5.37258 0 0 5.37258 0 12C0 18.6274 5.37258 24 12 24Z" fill="#627EEA"/>
  <path d="M12.298 3V9.87L17.999 12.22L12.298 3Z" fill="#C0CBF6"/>
  <path d="M12.298 3L6.597 12.22L12.298 9.87V3Z" fill="#FFFFFF"/>
  <path d="M12.298 16.97V20.996L18.004 13.616L12.298 16.97Z" fill="#C0CBF6"/>
  <path d="M12.298 20.996V16.97L6.597 13.616L12.298 20.996Z" fill="#FFFFFF"/>
  <path d="M12.298 15.429L17.999 12.22L12.298 9.87V15.429Z" fill="#8196F5"/>
  <path d="M6.597 12.22L12.298 15.429V9.87L6.597 12.22Z" fill="#C0CBF6"/>
</svg>
