<?xml version="1.0" encoding="UTF-8" standalone="no"?>
<!DOCTYPE svg PUBLIC "-//W3C//DTD SVG 1.1//EN" "http://www.w3.org/Graphics/SVG/1.1/DTD/svg11.dtd">
<svg xmlns="http://www.w3.org/2000/svg" version="1.1" viewBox="0.00 0.00 1024.00 262.00">
<path fill="#000000" d="
  M 740.78 79.42
  A 0.17 0.17 0.0 0 0 741.11 79.41
  L 747.44 48.41
  A 1.35 1.34 5.8 0 1 748.76 47.34
  L 848.38 47.34
  A 1.12 1.11 0.3 0 1 849.50 48.46
  Q 849.49 61.60 849.56 68.54
  Q 849.61 73.64 848.38 79.48
  Q 846.68 87.48 844.52 98.87
  A 0.29 0.29 0.0 0 0 845.02 99.12
  L 890.68 48.09
  A 2.35 2.35 0.0 0 1 892.42 47.32
  L 939.04 47.32
  A 2.83 2.81 -21.7 0 1 941.08 48.19
  L 976.52 85.66
  A 3.16 3.14 23.0 0 1 977.38 87.77
  Q 977.59 98.52 977.46 112.26
  C 977.44 114.67 977.08 115.98 975.56 117.95
  Q 969.56 125.73 965.84 129.91
  A 1.13 1.13 0.0 0 0 966.08 131.61
  L 969.77 134.00
  A 1.78 1.78 0.0 0 1 970.59 135.48
  Q 970.69 146.46 970.59 159.98
  Q 970.58 161.27 967.92 166.15
  Q 956.49 187.03 942.89 213.22
  A 2.16 2.15 13.5 0 1 940.97 214.39
  Q 920.67 214.37 881.79 214.39
  Q 879.65 214.39 878.10 213.17
  Q 869.59 206.43 859.99 198.76
  A 0.35 0.35 0.0 0 0 859.43 199.02
  L 859.17 213.48
  A 0.81 0.80 0.4 0 1 858.36 214.27
  L 747.57 214.27
  A 0.70 0.70 0.0 0 1 746.88 213.67
  L 745.03 201.16
  A 0.37 0.37 0.0 0 0 744.52 200.88
  Q 730.02 207.42 711.34 215.32
  C 708.21 216.65 706.86 216.50 704.30 214.27
  Q 694.87 206.04 693.35 204.81
  A 0.54 0.54 0.0 0 0 692.47 205.22
  L 692.31 214.07
  A 1.05 1.05 0.0 0 1 691.26 215.10
  L 632.46 215.10
  A 1.27 1.26 78.3 0 1 631.30 214.33
  Q 630.70 212.95 630.37 208.97
  Q 628.53 186.54 627.92 180.13
  A 0.36 0.35 -26.7 0 0 627.30 179.93
  L 596.44 214.41
  A 2.42 2.40 -68.9 0 1 594.65 215.21
  Q 550.36 215.17 527.51 215.30
  Q 525.53 215.31 524.24 214.38
  A 1.64 1.49 86.4 0 1 523.92 214.07
  Q 520.17 209.44 496.22 180.06
  Q 495.02 178.59 494.87 175.85
  Q 494.11 161.74 494.39 147.31
  A 0.94 0.94 0.0 0 0 493.60 146.37
  L 471.23 142.75
  A 0.84 0.84 0.0 0 0 470.26 143.70
  Q 475.08 177.02 475.09 177.05
  Q 476.80 186.57 476.73 195.10
  Q 476.59 212.98 476.56 214.07
  A 1.02 1.01 0.6 0 1 475.54 215.06
  L 394.95 215.06
  A 1.78 1.78 0.0 0 1 393.17 213.36
  C 392.76 203.97 392.66 189.87 394.25 177.95
  Q 394.81 173.75 398.65 139.62
  A 0.83 0.82 -85.4 0 0 397.87 138.70
  L 372.53 137.36
  A 0.52 0.52 0.0 0 0 372.03 138.10
  L 387.08 170.78
  A 5.25 5.20 -57.6 0 1 387.56 172.97
  L 387.56 203.61
  A 0.91 0.91 0.0 0 1 386.79 204.51
  L 317.09 215.52
  A 1.28 1.27 -8.7 0 1 315.63 214.45
  L 311.51 186.53
  A 1.17 1.16 -3.5 0 0 310.38 185.53
  L 292.32 185.20
  A 1.21 1.21 0.0 0 0 291.15 186.06
  L 282.66 215.40
  A 1.44 1.44 0.0 0 1 281.04 216.42
  L 264.38 213.58
  A 1.46 1.30 -43.6 0 0 263.81 213.60
  L 261.88 214.06
  A 6.66 6.25 -50.0 0 1 260.37 214.24
  L 151.14 214.24
  A 1.05 1.04 -3.4 0 1 150.10 213.32
  L 143.11 151.12
  A 0.38 0.38 0.0 0 0 142.36 151.10
  L 138.30 176.18
  A 0.74 0.73 -82.3 0 1 137.49 176.80
  L 116.10 174.34
  A 0.74 0.74 0.0 0 0 115.28 175.19
  C 116.35 182.10 117.39 186.18 117.39 192.01
  Q 117.39 211.91 117.32 213.22
  A 1.12 1.12 0.0 0 1 116.20 214.29
  L 52.00 214.29
  A 1.95 1.95 0.0 0 1 50.06 212.54
  C 49.09 202.71 49.72 193.65 48.72 183.62
  C 48.05 176.92 48.82 167.39 47.87 159.25
  C 47.14 152.97 47.84 144.95 47.32 138.34
  Q 46.75 130.97 46.74 128.50
  Q 46.69 105.04 46.70 92.75
  Q 46.70 89.24 47.50 85.75
  Q 51.20 69.75 56.49 48.06
  A 1.11 1.11 0.0 0 1 57.58 47.21
  Q 87.30 47.45 146.75 47.68
  C 149.96 47.69 153.32 47.31 155.75 47.31
  Q 199.89 47.33 252.18 47.31
  A 1.07 1.07 0.0 0 1 253.25 48.38
  Q 253.26 56.14 253.39 67.03
  Q 253.45 72.39 252.37 77.91
  Q 249.35 93.37 244.47 117.85
  A 0.27 0.27 0.0 0 0 244.97 118.04
  L 283.88 52.71
  A 2.27 2.26 -77.5 0 1 285.58 51.62
  L 328.72 47.24
  A 2.17 2.16 -15.0 0 1 330.90 48.49
  L 361.58 115.10
  A 0.21 0.21 0.0 0 0 361.98 115.01
  Q 361.85 93.00 361.93 66.50
  Q 361.96 56.77 362.80 48.08
  A 0.58 0.57 -87.2 0 1 363.37 47.56
  C 375.66 47.44 390.54 48.10 400.56 48.21
  C 425.45 48.50 453.67 49.36 481.07 49.58
  Q 488.07 49.64 493.91 49.19
  C 498.62 48.83 505.60 48.24 511.04 48.22
  Q 536.31 48.17 569.44 48.23
  A 1.12 1.12 0.0 0 1 570.56 49.30
  L 570.93 56.17
  A 0.57 0.56 88.4 0 0 571.49 56.71
  Q 615.56 56.65 616.77 56.65
  Q 618.87 56.65 620.12 55.72
  Q 621.59 54.62 622.21 54.47
  Q 623.62 54.14 625.75 53.97
  Q 676.30 49.95 701.03 48.05
  A 3.72 3.72 0.0 0 1 703.54 48.77
  Q 725.64 64.98 736.75 73.04
  C 739.70 75.18 739.97 76.43 740.78 79.42
  Z
  M 836.07 133.88
  Q 836.40 133.88 836.35 132.75
  Q 836.24 130.12 836.06 130.12
  Q 835.89 130.12 835.78 132.75
  Q 835.74 133.88 836.07 133.88
  Z"
/>
<path fill="#009cd9" d="
  M 128.11 138.83
  L 97.81 135.34
  A 0.40 0.39 -1.7 0 0 97.38 135.79
  L 103.88 176.92
  A 0.82 0.81 -4.5 0 1 103.07 177.86
  L 62.24 177.86
  A 0.89 0.89 0.0 0 1 61.35 177.00
  Q 59.34 123.48 58.13 94.24
  Q 58.01 91.37 58.73 88.25
  Q 62.70 71.01 65.60 58.67
  A 0.51 0.50 -82.1 0 1 66.10 58.28
  Q 107.77 58.51 134.25 58.67
  Q 140.13 58.71 145.97 59.17
  A 0.43 0.42 5.6 0 1 146.37 59.65
  L 142.11 96.75
  A 1.04 1.03 -83.3 0 1 140.97 97.66
  L 98.70 92.80
  A 0.72 0.72 0.0 0 0 97.90 93.48
  L 97.31 104.70
  A 0.85 0.85 0.0 0 0 98.20 105.59
  L 133.50 103.72
  A 0.72 0.72 0.0 0 1 134.25 104.56
  L 128.79 138.31
  A 0.63 0.62 -82.1 0 1 128.11 138.83
  Z"
/>
<path fill="#fccf00" d="
  M 238.69 58.27
  A 0.63 0.62 -84.3 0 1 239.30 59.02
  L 232.77 91.00
  A 0.60 0.59 -89.3 0 1 232.29 91.47
  L 194.72 97.40
  A 0.73 0.72 87.1 0 0 194.11 98.08
  L 193.75 104.98
  A 0.61 0.60 -86.6 0 0 194.31 105.62
  L 227.33 108.07
  A 0.35 0.34 4.3 0 1 227.65 108.43
  L 226.37 132.75
  A 0.71 0.71 0.0 0 1 225.73 133.42
  L 196.77 136.36
  A 0.74 0.74 0.0 0 0 196.14 137.31
  L 198.05 143.76
  A 1.94 1.93 81.7 0 0 199.90 145.15
  L 234.58 145.15
  A 1.35 1.35 0.0 0 1 235.82 145.97
  L 248.60 176.14
  A 0.56 0.56 0.0 0 1 248.08 176.92
  L 161.45 176.92
  A 0.77 0.76 87.1 0 1 160.69 176.23
  Q 157.20 143.77 153.26 110.25
  C 152.44 103.27 153.15 97.68 154.83 88.53
  Q 156.73 78.11 160.75 59.01
  A 0.94 0.94 0.0 0 1 161.67 58.27
  L 238.69 58.27
  Z"
/>
<path fill="#42b131" d="
  M 844.69 176.93
  L 758.17 176.93
  A 1.26 1.25 -6.3 0 1 756.94 175.95
  Q 755.96 171.74 757.82 169.20
  A 1.62 1.58 63.8 0 0 758.13 168.25
  L 758.13 160.93
  A 1.39 1.38 -65.7 0 0 757.79 160.02
  C 756.49 158.49 755.31 158.19 754.88 155.88
  C 753.38 147.79 752.79 137.35 751.61 128.38
  Q 750.28 118.23 748.67 101.74
  A 9.79 9.74 -42.2 0 1 748.82 98.86
  L 756.90 59.24
  A 1.20 1.18 5.6 0 1 758.07 58.29
  L 835.06 58.29
  A 0.52 0.51 5.9 0 1 835.57 58.91
  L 829.03 90.99
  A 0.63 0.63 0.0 0 1 828.52 91.48
  L 791.23 97.37
  A 1.27 1.27 0.0 0 0 790.16 98.62
  L 790.16 104.99
  A 0.67 0.67 0.0 0 0 790.79 105.66
  L 823.57 108.10
  A 0.42 0.42 0.0 0 1 823.96 108.54
  L 822.69 132.72
  A 0.76 0.75 89.1 0 1 822.01 133.43
  L 793.25 136.35
  A 0.92 0.91 78.9 0 0 792.47 137.52
  L 794.34 143.84
  A 1.85 1.84 81.8 0 0 796.11 145.17
  L 831.40 145.17
  A 0.48 0.47 -11.0 0 1 831.84 145.46
  L 844.99 176.48
  A 0.33 0.32 -11.4 0 1 844.69 176.93
  Z"
/>
<path fill="#fccf00" d="
  M 963.45 89.06
  L 944.01 113.55
  A 1.28 1.27 35.8 0 1 942.32 113.82
  L 919.84 99.34
  A 1.11 1.10 35.5 0 0 918.37 99.58
  L 913.51 105.69
  A 0.93 0.92 -53.0 0 0 913.69 107.01
  L 955.26 137.56
  A 1.27 1.26 32.2 0 1 955.63 139.17
  L 935.59 177.08
  A 1.59 1.59 0.0 0 1 934.19 177.92
  L 885.41 177.92
  A 4.40 4.40 0.0 0 1 882.68 176.97
  L 848.51 149.84
  A 0.97 0.96 34.8 0 1 848.28 148.59
  L 862.90 124.06
  A 1.24 1.24 0.0 0 1 864.59 123.62
  L 893.20 140.13
  A 1.31 1.30 31.3 0 0 894.95 139.71
  L 898.38 134.38
  A 1.08 1.07 -58.2 0 0 898.03 132.87
  L 854.48 106.92
  A 0.73 0.73 0.0 0 1 854.31 105.81
  Q 866.99 91.45 895.73 59.23
  C 896.66 58.19 898.68 58.26 900.18 58.28
  Q 900.92 58.29 933.78 58.33
  A 3.01 3.00 68.2 0 1 935.96 59.27
  L 963.42 88.30
  A 0.58 0.57 -47.8 0 1 963.45 89.06
  Z"
/>
<path fill="#42b131" d="
  M 406.25 177.11
  L 414.71 103.55
  A 0.76 0.76 0.0 0 0 413.99 102.71
  L 374.83 100.64
  A 0.76 0.76 0.0 0 1 374.11 99.88
  L 374.11 59.96
  A 0.76 0.76 0.0 0 1 374.88 59.20
  L 491.80 61.32
  A 0.76 0.76 0.0 0 1 492.55 62.08
  L 492.55 108.43
  A 0.76 0.76 0.0 0 1 491.67 109.18
  L 453.45 103.00
  A 0.76 0.76 0.0 0 0 452.58 103.86
  L 463.38 177.09
  A 0.76 0.76 0.0 0 1 462.63 177.96
  L 407.00 177.96
  A 0.76 0.76 0.0 0 1 406.25 177.11
  Z"
/>
<path fill="#fccf00" d="
  M 570.31 68.13
  A 0.49 0.49 0.0 0 1 570.80 67.59
  L 618.88 67.59
  A 0.75 0.75 0.0 0 1 619.63 68.34
  Q 619.61 111.30 619.62 138.75
  C 619.63 143.33 619.95 145.17 617.06 148.32
  Q 613.80 151.88 591.56 177.02
  A 2.58 2.57 -69.0 0 1 589.64 177.88
  L 531.44 177.88
  A 2.30 2.30 0.0 0 1 529.63 177.00
  Q 524.30 170.23 509.69 152.74
  Q 508.23 151.00 507.15 148.98
  A 3.53 3.48 31.2 0 1 506.73 147.32
  L 506.73 59.70
  A 0.42 0.41 -90.0 0 1 507.14 59.28
  L 557.49 59.28
  A 1.11 1.11 0.0 0 1 558.60 60.43
  L 556.26 138.62
  A 0.64 0.64 0.0 0 0 557.27 139.16
  L 575.07 126.48
  A 2.30 2.28 -21.0 0 0 576.02 124.38
  L 570.31 68.13
  Z"
/>
<path fill="#e61e07" d="
  M 325.57 176.14
  L 321.72 150.00
  A 0.79 0.79 0.0 0 0 320.96 149.33
  L 283.43 148.21
  A 0.79 0.79 0.0 0 0 282.65 148.78
  L 274.42 177.18
  A 0.79 0.79 0.0 0 1 273.54 177.74
  L 261.08 175.72
  A 0.79 0.79 0.0 0 1 260.48 175.25
  L 245.54 139.99
  A 0.79 0.79 0.0 0 1 245.58 139.28
  L 291.09 62.89
  A 0.79 0.79 0.0 0 1 291.69 62.51
  L 322.76 59.35
  A 0.79 0.79 0.0 0 1 323.56 59.80
  L 373.54 168.35
  A 0.79 0.79 0.0 0 1 372.95 169.46
  L 326.48 176.81
  A 0.79 0.79 0.0 0 1 325.57 176.14
  Z"
/>
<path fill="#e61e07" d="
  M 677.88 177.88
  L 642.11 177.88
  A 0.35 0.35 0.0 0 1 641.76 177.56
  L 632.63 65.13
  A 0.58 0.58 0.0 0 1 633.16 64.51
  L 697.94 59.25
  A 2.49 2.45 -28.8 0 1 699.58 59.71
  L 727.77 80.43
  A 0.87 0.77 8.0 0 1 727.99 80.69
  Q 729.01 82.62 729.15 86.13
  Q 729.56 96.47 730.06 100.01
  C 730.71 104.58 730.34 109.58 731.18 114.99
  Q 731.48 116.92 730.63 119.19
  A 0.93 0.89 79.0 0 1 730.42 119.52
  L 715.11 136.07
  A 0.63 0.62 -47.9 0 0 715.15 136.96
  L 743.33 162.19
  A 0.81 0.81 0.0 0 1 743.11 163.54
  L 711.16 177.08
  A 3.07 3.05 -35.8 0 1 707.95 176.57
  Q 700.75 170.27 675.78 149.06
  Q 675.43 148.76 675.19 148.50
  Q 674.69 147.94 674.12 148.07
  Q 673.42 148.23 673.55 148.91
  Q 675.77 160.75 678.43 177.24
  A 0.56 0.55 -4.4 0 1 677.88 177.88
  Z"
/>
<path fill="#000000" d="
  M 691.70 103.17
  L 681.88 116.53
  A 0.46 0.46 0.0 0 1 681.43 116.72
  L 672.81 115.32
  A 0.46 0.46 0.0 0 1 672.42 114.86
  L 673.06 93.46
  A 0.46 0.46 0.0 0 1 673.73 93.07
  L 691.55 102.49
  A 0.46 0.46 0.0 0 1 691.70 103.17
  Z"
/>
<path fill="#000000" d="
  M 293.50 116.50
  L 299.28 101.80
  A 0.73 0.73 0.0 0 1 300.00 101.34
  L 311.72 101.95
  A 0.73 0.73 0.0 0 1 312.39 102.47
  L 316.91 117.72
  A 0.73 0.73 0.0 0 1 316.17 118.66
  L 294.14 117.49
  A 0.73 0.73 0.0 0 1 293.50 116.50
  Z"
/>
</svg>
