<svg width="658" height="203" viewBox="0 0 658 203" fill="none" xmlns="http://www.w3.org/2000/svg">
<g clip-path="url(#clip0_150_133)">
<path d="M29.6659 13.5329L56.3973 97.5614H57.4234L84.2088 13.5329H110.13L72.0041 124.131H41.8705L3.69046 13.5329H29.6659ZM113.886 124.131V41.1824H136.891V124.131H113.886ZM125.442 30.4898C122.022 30.4898 119.088 29.3558 116.64 27.0876C114.228 24.7835 113.022 22.0294 113.022 18.8252C113.022 15.657 114.228 12.9389 116.64 10.6707C119.088 8.36662 122.022 7.21456 125.442 7.21456C128.862 7.21456 131.779 8.36662 134.191 10.6707C136.639 12.9389 137.863 15.657 137.863 18.8252C137.863 22.0294 136.639 24.7835 134.191 27.0876C131.779 29.3558 128.862 30.4898 125.442 30.4898ZM146.195 124.131V41.1824H168.498V55.6552H169.362C170.874 50.5069 173.412 46.6187 176.977 43.9905C180.541 41.3264 184.645 39.9943 189.289 39.9943C190.441 39.9943 191.683 40.0663 193.015 40.2103C194.348 40.3543 195.518 40.5524 196.526 40.8044V61.2175C195.446 60.8935 193.952 60.6054 192.043 60.3534C190.135 60.1014 188.389 59.9754 186.805 59.9754C183.421 59.9754 180.397 60.7134 177.733 62.1895C175.105 63.6296 173.016 65.6457 171.468 68.2378C169.956 70.83 169.2 73.8181 169.2 77.2023V124.131H146.195ZM247.574 41.1824V58.4633H197.621V41.1824H247.574ZM208.962 21.3093H231.967V98.6415C231.967 100.766 232.291 102.422 232.939 103.61C233.587 104.762 234.487 105.572 235.639 106.04C236.827 106.508 238.196 106.742 239.744 106.742C240.824 106.742 241.904 106.652 242.984 106.472C244.064 106.256 244.892 106.094 245.468 105.986L249.086 123.105C247.934 123.465 246.314 123.879 244.226 124.347C242.138 124.851 239.6 125.157 236.611 125.265C231.067 125.481 226.207 124.743 222.031 123.051C217.89 121.359 214.668 118.731 212.364 115.166C210.06 111.602 208.926 107.102 208.962 101.666V21.3093ZM306.628 88.813V41.1824H329.634V124.131H307.546V109.064H306.682C304.81 113.924 301.696 117.831 297.34 120.783C293.02 123.735 287.745 125.211 281.517 125.211C275.973 125.211 271.094 123.951 266.882 121.431C262.67 118.911 259.376 115.328 257 110.684C254.66 106.04 253.472 100.478 253.436 93.9972V41.1824H276.441V89.893C276.477 94.7893 277.791 98.6595 280.383 101.504C282.975 104.348 286.449 105.77 290.806 105.77C293.578 105.77 296.17 105.14 298.582 103.88C300.994 102.584 302.938 100.676 304.414 98.1555C305.926 95.6353 306.664 92.5212 306.628 88.813ZM362.564 125.697C357.272 125.697 352.556 124.779 348.415 122.943C344.275 121.071 340.999 118.317 338.587 114.68C336.211 111.008 335.023 106.436 335.023 100.964C335.023 96.3554 335.869 92.4852 337.561 89.353C339.253 86.2208 341.557 83.7007 344.473 81.7926C347.389 79.8845 350.701 78.4444 354.41 77.4723C358.154 76.5003 362.078 75.8163 366.182 75.4202C371.007 74.9162 374.895 74.4482 377.847 74.0162C380.799 73.5481 382.941 72.8641 384.273 71.964C385.605 71.064 386.271 69.7319 386.271 67.9678V67.6438C386.271 64.2236 385.191 61.5775 383.031 59.7054C380.907 57.8333 377.883 56.8972 373.959 56.8972C369.818 56.8972 366.524 57.8153 364.076 59.6514C361.628 61.4515 360.008 63.7196 359.216 66.4558L337.939 64.7277C339.019 59.6874 341.143 55.3312 344.311 51.659C347.479 47.9508 351.565 45.1066 356.57 43.1265C361.61 41.1104 367.442 40.1023 374.067 40.1023C378.675 40.1023 383.085 40.6424 387.297 41.7224C391.546 42.8025 395.308 44.4766 398.584 46.7447C401.896 49.0128 404.506 51.929 406.414 55.4932C408.323 59.0214 409.277 63.2516 409.277 68.1838V124.131H387.459V112.628H386.811C385.479 115.22 383.697 117.507 381.465 119.487C379.233 121.431 376.551 122.961 373.419 124.077C370.287 125.157 366.668 125.697 362.564 125.697ZM369.152 109.82C372.537 109.82 375.525 109.154 378.117 107.822C380.709 106.454 382.743 104.618 384.219 102.314C385.695 100.01 386.433 97.3994 386.433 94.4833V85.6808C385.713 86.1488 384.723 86.5808 383.463 86.9769C382.239 87.3369 380.853 87.6789 379.305 88.0029C377.757 88.2909 376.209 88.5609 374.661 88.813C373.113 89.029 371.709 89.227 370.449 89.407C367.748 89.803 365.39 90.433 363.374 91.2971C361.358 92.1611 359.792 93.3312 358.676 94.8073C357.56 96.2474 357.002 98.0475 357.002 100.208C357.002 103.34 358.136 105.734 360.404 107.39C362.708 109.01 365.624 109.82 369.152 109.82ZM441.005 13.5329V124.131H418V13.5329H441.005ZM510.739 45.3406C510.307 40.9844 508.453 37.6002 505.177 35.1881C501.9 32.7759 497.454 31.5699 491.838 31.5699C488.022 31.5699 484.799 32.1099 482.171 33.19C479.543 34.234 477.527 35.6921 476.123 37.5642C474.755 39.4363 474.071 41.5604 474.071 43.9365C473.999 45.9166 474.413 47.6447 475.313 49.1208C476.249 50.5969 477.527 51.875 479.147 52.955C480.767 53.9991 482.639 54.9171 484.763 55.7092C486.888 56.4652 489.156 57.1132 491.568 57.6533L501.504 60.0294C506.329 61.1095 510.757 62.5495 514.789 64.3496C518.821 66.1497 522.313 68.3639 525.266 70.992C528.218 73.6201 530.504 76.7163 532.124 80.2805C533.78 83.8447 534.626 87.9309 534.662 92.5392C534.626 99.3075 532.898 105.176 529.478 110.144C526.094 115.076 521.197 118.911 514.789 121.647C508.417 124.347 500.73 125.697 491.73 125.697C482.801 125.697 475.025 124.329 468.401 121.593C461.812 118.857 456.664 114.806 452.956 109.442C449.284 104.042 447.357 97.3634 447.177 89.407H469.805C470.057 93.1152 471.119 96.2114 472.991 98.6955C474.899 101.144 477.437 102.998 480.605 104.258C483.809 105.482 487.428 106.094 491.46 106.094C495.42 106.094 498.858 105.518 501.774 104.366C504.727 103.214 507.013 101.612 508.633 99.5595C510.253 97.5074 511.063 95.1493 511.063 92.4852C511.063 90.001 510.325 87.9129 508.849 86.2208C507.409 84.5287 505.285 83.0886 502.476 81.9006C499.704 80.7125 496.302 79.6325 492.27 78.6604L480.227 75.6362C470.903 73.3681 463.54 69.8219 458.14 64.9977C452.74 60.1734 450.058 53.6751 450.094 45.5026C450.058 38.8063 451.84 32.9559 455.44 27.9517C459.076 22.9474 464.062 19.0412 470.399 16.233C476.735 13.4249 483.935 12.0208 492 12.0208C500.208 12.0208 507.373 13.4249 513.493 16.233C519.649 19.0412 524.438 22.9474 527.858 27.9517C531.278 32.9559 533.042 38.7523 533.15 45.3406H510.739ZM578.312 125.751C569.924 125.751 562.669 123.969 556.549 120.405C550.465 116.804 545.766 111.8 542.454 105.392C539.142 98.9475 537.486 91.4771 537.486 82.9806C537.486 74.4122 539.142 66.9238 542.454 60.5154C545.766 54.0711 550.465 49.0668 556.549 45.5026C562.669 41.9024 569.924 40.1023 578.312 40.1023C586.701 40.1023 593.937 41.9024 600.021 45.5026C606.142 49.0668 610.858 54.0711 614.17 60.5154C617.482 66.9238 619.138 74.4122 619.138 82.9806C619.138 91.4771 617.482 98.9475 614.17 105.392C610.858 111.8 606.142 116.804 600.021 120.405C593.937 123.969 586.701 125.751 578.312 125.751ZM578.42 107.93C582.236 107.93 585.423 106.85 587.979 104.69C590.535 102.494 592.461 99.5055 593.757 95.7253C595.089 91.9451 595.755 87.6429 595.755 82.8186C595.755 77.9944 595.089 73.6921 593.757 69.9119C592.461 66.1317 590.535 63.1436 587.979 60.9475C585.423 58.7513 582.236 57.6533 578.42 57.6533C574.568 57.6533 571.328 58.7513 568.7 60.9475C566.108 63.1436 564.145 66.1317 562.813 69.9119C561.517 73.6921 560.869 77.9944 560.869 82.8186C560.869 87.6429 561.517 91.9451 562.813 95.7253C564.145 99.5055 566.108 102.494 568.7 104.69C571.328 106.85 574.568 107.93 578.42 107.93ZM647.978 13.5329V124.131H624.973V13.5329H647.978Z" fill="black"/>
<path d="M65.4611 144.972C63.0038 143.934 60.3028 143.362 57.4642 143.362C54.6256 143.362 51.9246 143.934 49.4673 144.972L56.8128 132.245C57.0988 131.748 57.819 131.748 58.105 132.245L65.4558 144.972H65.4611Z" fill="url(#paint0_linear_150_133)"/>
<path d="M47.5128 145.924C42.6723 148.604 39.034 153.18 37.5882 158.65L32.128 144.738C31.9162 144.203 32.3664 143.642 32.933 143.726L47.5128 145.924Z" fill="url(#paint1_linear_150_133)"/>
<path d="M41.2849 176.598L26.4561 172.023C25.9053 171.853 25.7465 171.149 26.1649 170.762L37.1805 160.541C37.0004 161.637 36.9051 162.765 36.9051 163.915C36.9051 168.702 38.5415 173.108 41.2849 176.598Z" fill="url(#paint2_linear_150_133)"/>
<path d="M57.1571 184.468L44.1555 193.328C43.6789 193.651 43.0328 193.344 42.9904 192.767L41.8306 177.255C45.5377 181.598 51.0244 184.373 57.1571 184.463V184.468Z" fill="url(#paint3_linear_150_133)"/>
<path d="M73.0501 177.319L71.8956 192.752C71.8533 193.324 71.2071 193.636 70.7305 193.313L57.7554 184.469C63.8722 184.384 69.343 181.63 73.0501 177.319Z" fill="url(#paint4_linear_150_133)"/>
<path d="M88.4615 171.976L73.6963 176.53C76.4078 173.051 78.0231 168.671 78.0231 163.915C78.0231 162.75 77.9225 161.606 77.7371 160.494L88.7474 170.71C89.1711 171.102 89.0069 171.806 88.4615 171.971V171.976Z" fill="url(#paint5_linear_150_133)"/>
<path d="M82.7999 144.765L77.345 158.672C75.9045 153.207 72.2768 148.637 67.4521 145.946L81.9949 143.754C82.5616 143.669 83.0117 144.23 82.7999 144.765Z" fill="url(#paint6_linear_150_133)"/>
<path d="M57.4643 188.906C54.4297 188.906 51.9724 191.364 51.9724 194.398H62.9616C62.9616 191.364 60.5042 188.906 57.4696 188.906H57.4643Z" fill="url(#paint7_linear_150_133)"/>
<path d="M77.5464 179.909C75.6557 182.282 76.0423 185.74 78.4149 187.631L85.2626 179.041C82.89 177.15 79.4318 177.537 77.5411 179.909H77.5464Z" fill="url(#paint8_linear_150_133)"/>
<path d="M82.048 158.666C82.7206 161.626 85.6705 163.475 88.6256 162.797L86.1789 152.083C83.2184 152.756 81.3701 155.705 82.048 158.661V158.666Z" fill="url(#paint9_linear_150_133)"/>
<path d="M68.5698 141.861C71.3025 143.18 74.586 142.031 75.9047 139.293L66.0065 134.526C64.6878 137.259 65.837 140.543 68.5751 141.861H68.5698Z" fill="url(#paint10_linear_150_133)"/>
<path d="M46.1096 141.861C48.8423 140.543 49.9915 137.259 48.6728 134.526L38.7747 139.293C40.0934 142.025 43.3769 143.175 46.1096 141.856V141.861Z" fill="url(#paint11_linear_150_133)"/>
<path d="M33.0232 158.666C33.6957 155.706 31.8474 152.761 28.887 152.089L26.4456 162.803C29.406 163.475 32.3506 161.627 33.0232 158.666Z" fill="url(#paint12_linear_150_133)"/>
<path d="M30.4285 179.041L37.2815 187.631C39.6541 185.74 40.0407 182.282 38.15 179.909C36.2593 177.537 32.8011 177.15 30.4285 179.041Z" fill="url(#paint13_linear_150_133)"/>
<path d="M130.164 157.957C130.164 163.035 126.257 166.812 120.918 166.812H109.197V182.569H102.686V144.804H120.918C126.257 144.804 130.164 148.515 130.164 153.594V157.957ZM123.652 158.412V153.138C123.652 151.836 122.545 150.729 121.373 150.729H109.197V160.756H121.373C122.545 160.756 123.652 159.649 123.652 158.412ZM158.943 173.844C158.943 178.793 154.906 182.569 149.567 182.569H140.191C134.851 182.569 130.814 178.793 130.814 173.844V164.598C130.814 159.649 134.851 155.873 140.191 155.873H149.567C154.906 155.873 158.943 159.649 158.943 164.598V173.844ZM152.432 174.495V163.947C152.432 162.775 151.455 161.798 150.153 161.798H139.605C138.367 161.798 137.326 162.775 137.326 163.947V174.495C137.326 175.667 138.367 176.644 139.605 176.644H150.153C151.455 176.644 152.432 175.667 152.432 174.495ZM195.554 169.807C195.554 172.477 194.643 174.235 193.21 176.253L188.782 182.569H183.313L178.885 176.188L174.457 182.569H168.988L164.56 176.253C163.128 174.235 162.216 172.477 162.216 169.807V155.873H168.923V169.872C168.923 172.151 170.681 174.235 171.853 176.058L174.718 172.021C175.434 171.044 175.63 170.523 175.63 169.677V163.166H182.141V169.677C182.141 170.523 182.401 171.044 183.052 172.021L185.983 176.058C187.089 174.235 188.848 172.151 188.848 169.872V155.873H195.554V169.807ZM226.67 172.412H205.964V174.626C205.964 175.798 207.006 176.774 208.243 176.774H223.219V182.569H208.699C203.36 182.569 199.453 178.923 199.453 173.909V164.533C199.453 159.519 203.36 155.873 208.699 155.873H217.424C222.763 155.873 226.67 159.519 226.67 164.533V172.412ZM220.159 166.747V164.012C220.159 162.84 219.182 161.863 217.88 161.863H208.243C207.006 161.863 205.964 162.84 205.964 164.012V166.747H220.159ZM256.24 167.072H249.598V164.012C249.598 162.84 248.556 161.863 247.319 161.863H244.389C242.761 161.863 242.631 161.928 241.459 162.97L237.096 166.942V182.569H230.585V155.873H237.096V159.454C239.18 157.436 240.287 155.873 243.608 155.873H246.994C252.333 155.808 256.24 159.519 256.24 164.468V167.072ZM285.056 172.412H264.35V174.626C264.35 175.798 265.392 176.774 266.629 176.774H281.605V182.569H267.085C261.745 182.569 257.839 178.923 257.839 173.909V164.533C257.839 159.519 261.745 155.873 267.085 155.873H275.81C281.149 155.873 285.056 159.519 285.056 164.533V172.412ZM278.545 166.747V164.012C278.545 162.84 277.568 161.863 276.266 161.863H266.629C265.392 161.863 264.35 162.84 264.35 164.012V166.747H278.545ZM316.579 182.569H298.217C292.878 182.569 288.971 178.858 288.971 173.779V164.142C288.971 159.194 292.878 155.287 298.217 155.352H303.231C306.291 155.352 308.114 157.11 310.068 158.933V144.804H316.579V182.569ZM310.068 176.774V166.486L305.445 162.449C304.207 161.342 304.077 161.277 302.514 161.277H297.761C296.524 161.277 295.482 162.254 295.482 163.426V174.56C295.482 175.798 296.524 176.774 297.761 176.774H310.068ZM364.346 173.779C364.346 178.858 360.439 182.569 355.1 182.569H336.738V144.804H343.249V158.933C345.202 157.11 346.96 155.352 350.021 155.352H355.034C360.439 155.287 364.346 159.194 364.346 164.142V173.779ZM357.834 174.56V163.426C357.834 162.254 356.792 161.277 355.555 161.277H350.802C349.239 161.277 349.109 161.342 347.872 162.449L343.249 166.486V176.774H355.555C356.792 176.774 357.834 175.798 357.834 174.56ZM395.208 179.9C395.208 184.979 391.301 188.69 385.962 188.69H373.721V182.569H386.418C387.72 182.569 388.697 181.593 388.697 180.421V178.728H377.497C372.158 178.728 368.251 175.016 368.251 170.002V155.873H374.763V170.458C374.763 171.695 375.805 172.607 377.042 172.607H388.697V155.873H395.208V179.9Z" fill="#E84125"/>
<path d="M419.99 148.81V164.539H438.447V149.72H446.857V184.992H438.447V172.038H419.99V184.992H411.58V151.082L419.99 148.81Z" fill="#E84125"/>
<path d="M462.083 177.488H487.811L485.539 184.987H453.678V149.716H487.816L485.544 157.215H462.088V163.623H483.95V171.122H462.088V177.488H462.083Z" fill="#E84125"/>
<path d="M501.31 149.716V177.488H526.127L523.855 184.987H492.9V149.716H501.31Z" fill="#E84125"/>
<path d="M538.175 149.716V184.987H529.765V149.716H538.175Z" fill="#E84125"/>
<path d="M573.447 149.715H581.857V170.989C581.857 181.263 573.447 185.76 562.585 185.76C551.723 185.76 543.9 180.94 543.9 170.989V151.082L552.31 148.81V170.989C552.31 176.169 555.763 178.128 562.992 178.128C570.221 178.128 573.447 176.036 573.447 170.989V149.715Z" fill="#E84125"/>
<path d="M586.13 160.445C586.13 155.038 590.404 149.716 598.767 149.716H622.768L620.496 157.215H598.857C596.267 157.215 594.991 158.851 594.991 160.44C594.991 162.029 596.309 163.623 598.857 163.623H611.037C619.262 163.623 623.536 168.94 623.536 174.353C623.536 179.765 619.49 184.987 611.037 184.987H586.13L588.402 177.488H610.947C613.495 177.488 614.813 175.989 614.813 174.353C614.813 172.716 613.542 171.08 610.947 171.08H598.767C590.267 171.08 586.13 165.763 586.13 160.445Z" fill="#E84125"/>
</g>
<defs>
<linearGradient id="paint0_linear_150_133" x1="48.1062" y1="138.421" x2="65.4611" y2="138.421" gradientUnits="userSpaceOnUse">
<stop stop-color="#E35930"/>
<stop offset="1" stop-color="#E84125"/>
</linearGradient>
<linearGradient id="paint1_linear_150_133" x1="31.0212" y1="151.183" x2="47.5128" y2="151.183" gradientUnits="userSpaceOnUse">
<stop stop-color="#E35930"/>
<stop offset="1" stop-color="#E84125"/>
</linearGradient>
<linearGradient id="paint2_linear_150_133" x1="25.4393" y1="168.57" x2="41.2849" y2="168.57" gradientUnits="userSpaceOnUse">
<stop stop-color="#E35930"/>
<stop offset="1" stop-color="#E84125"/>
</linearGradient>
<linearGradient id="paint3_linear_150_133" x1="41.5393" y1="185.358" x2="57.1571" y2="185.358" gradientUnits="userSpaceOnUse">
<stop stop-color="#E35930"/>
<stop offset="1" stop-color="#E84125"/>
</linearGradient>
<linearGradient id="paint4_linear_150_133" x1="57.2258" y1="185.38" x2="73.0501" y2="185.38" gradientUnits="userSpaceOnUse">
<stop stop-color="#E35930"/>
<stop offset="1" stop-color="#E84125"/>
</linearGradient>
<linearGradient id="paint5_linear_150_133" x1="72.7271" y1="168.512" x2="88.9858" y2="168.512" gradientUnits="userSpaceOnUse">
<stop stop-color="#E35930"/>
<stop offset="1" stop-color="#E84125"/>
</linearGradient>
<linearGradient id="paint6_linear_150_133" x1="66.1493" y1="151.205" x2="82.8528" y2="151.205" gradientUnits="userSpaceOnUse">
<stop stop-color="#E35930"/>
<stop offset="1" stop-color="#E84125"/>
</linearGradient>
<linearGradient id="paint7_linear_150_133" x1="59.8869" y1="189.46" x2="55.7667" y2="196.597" gradientUnits="userSpaceOnUse">
<stop stop-color="#E35930"/>
<stop offset="1" stop-color="#E84125"/>
</linearGradient>
<linearGradient id="paint8_linear_150_133" x1="79.5003" y1="178.264" x2="82.5111" y2="185.935" gradientUnits="userSpaceOnUse">
<stop stop-color="#E35930"/>
<stop offset="1" stop-color="#E84125"/>
</linearGradient>
<linearGradient id="paint9_linear_150_133" x1="82.0372" y1="156.157" x2="89.9117" y2="158.585" gradientUnits="userSpaceOnUse">
<stop stop-color="#E35930"/>
<stop offset="1" stop-color="#E84125"/>
</linearGradient>
<linearGradient id="paint10_linear_150_133" x1="66.6202" y1="140.313" x2="73.4285" y2="135.67" gradientUnits="userSpaceOnUse">
<stop stop-color="#E35930"/>
<stop offset="1" stop-color="#E84125"/>
</linearGradient>
<linearGradient id="paint11_linear_150_133" x1="43.7924" y1="142.453" x2="44.4074" y2="134.236" gradientUnits="userSpaceOnUse">
<stop stop-color="#E35930"/>
<stop offset="1" stop-color="#E84125"/>
</linearGradient>
<linearGradient id="paint12_linear_150_133" x1="32.1035" y1="160.895" x2="26.0621" y2="155.291" gradientUnits="userSpaceOnUse">
<stop stop-color="#E35930"/>
<stop offset="1" stop-color="#E84125"/>
</linearGradient>
<linearGradient id="paint13_linear_150_133" x1="39.3779" y1="182.059" x2="31.2296" y2="183.289" gradientUnits="userSpaceOnUse">
<stop stop-color="#E35930"/>
<stop offset="1" stop-color="#E84125"/>
</linearGradient>
<clipPath id="clip0_150_133">
<rect width="658" height="203" fill="white"/>
</clipPath>
</defs>
</svg>
