<?xml version="1.0" encoding="UTF-8" standalone="no"?>
<!DOCTYPE svg PUBLIC "-//W3C//DTD SVG 1.1//EN" "http://www.w3.org/Graphics/SVG/1.1/DTD/svg11.dtd">
<svg xmlns="http://www.w3.org/2000/svg" version="1.1" viewBox="0.00 0.00 1024.00 203.00">
<path fill="#000000" d="
  M 90.26 73.06
  L 91.02 51.41
  A 1.87 1.87 0.0 0 1 92.98 49.60
  L 125.80 51.10
  A 1.30 1.30 0.0 0 1 127.04 52.30
  L 128.01 64.28
  A 0.55 0.55 0.0 0 0 128.85 64.71
  Q 139.98 57.80 152.53 49.76
  Q 153.82 48.94 157.79 49.04
  Q 165.01 49.23 186.46 49.98
  A 2.78 2.77 -18.3 0 1 188.51 51.01
  L 203.03 69.09
  A 0.12 0.12 0.0 0 0 203.25 69.01
  L 203.25 52.74
  A 1.34 1.34 0.0 0 1 204.48 51.40
  L 241.75 48.40
  A 1.52 1.51 -9.2 0 1 243.34 49.54
  L 250.51 78.14
  A 0.32 0.32 0.0 0 0 251.05 78.29
  L 264.13 65.21
  A 1.35 1.35 0.0 0 1 266.21 65.42
  L 274.48 78.13
  A 0.61 0.61 0.0 0 0 275.56 78.03
  L 287.22 49.91
  A 1.13 1.13 0.0 0 1 288.50 49.24
  L 326.74 57.42
  A 1.28 1.28 0.0 0 1 327.75 58.63
  Q 327.87 63.08 327.74 73.47
  Q 327.71 75.81 325.78 79.75
  Q 312.46 107.03 290.60 153.22
  A 1.97 1.96 12.5 0 1 288.82 154.35
  L 261.89 154.35
  A 1.71 1.69 80.3 0 1 260.29 153.20
  L 258.16 146.99
  A 0.47 0.46 -40.8 0 0 257.31 146.93
  L 253.92 153.34
  A 1.93 1.93 0.0 0 1 252.28 154.37
  Q 232.93 155.04 227.74 155.16
  C 224.72 155.24 224.86 153.82 224.20 151.17
  Q 218.50 128.28 213.21 107.52
  A 0.15 0.15 0.0 0 0 212.91 107.53
  L 206.96 142.10
  A 1.27 1.27 0.0 0 1 206.01 143.12
  L 158.45 155.05
  A 2.33 2.33 0.0 0 1 156.34 154.54
  L 132.55 133.55
  A 0.35 0.35 0.0 0 0 131.96 133.81
  L 131.96 153.92
  A 0.82 0.82 0.0 0 1 131.12 154.74
  Q 119.03 154.40 99.00 153.63
  C 95.92 153.51 92.66 154.50 89.91 154.52
  Q 74.58 154.62 58.04 154.50
  A 0.93 0.93 0.0 0 1 57.14 153.79
  Q 56.77 152.29 56.62 151.07
  Q 55.19 139.44 48.13 77.70
  C 47.23 69.78 47.41 62.94 47.50 55.80
  A 1.28 1.27 85.3 0 1 48.54 54.57
  L 87.76 47.13
  A 1.07 1.06 83.3 0 1 89.03 48.14
  L 89.86 72.95
  A 0.13 0.13 0.0 0 0 89.98 73.07
  L 90.23 73.08
  A 0.04 0.03 -75.1 0 0 90.26 73.06
  Z"
/>
<path fill="#000000" d="
  M 411.61 78.90
  A 0.27 0.27 0.0 0 0 412.14 78.83
  Q 411.42 65.47 412.25 52.25
  Q 412.32 51.10 412.64 49.43
  A 0.80 0.79 -83.9 0 1 413.43 48.79
  L 502.11 50.21
  A 1.44 1.43 85.3 0 1 503.49 51.39
  Q 503.94 53.82 504.00 55.60
  Q 504.50 72.56 504.19 102.77
  Q 504.15 106.73 503.58 111.36
  A 1.22 1.22 0.0 0 1 502.16 112.42
  L 482.73 109.08
  A 0.65 0.64 -89.1 0 0 481.98 109.81
  Q 484.72 128.43 485.50 133.50
  C 486.52 140.21 486.46 147.69 486.11 153.75
  A 1.38 1.38 0.0 0 1 484.73 155.06
  L 433.58 155.06
  A 1.57 1.57 0.0 0 1 432.01 153.53
  Q 431.94 150.78 431.84 144.26
  Q 431.78 139.95 432.32 135.25
  Q 433.54 124.71 435.54 107.38
  A 0.84 0.83 -85.5 0 0 434.75 106.45
  L 418.06 105.69
  A 0.71 0.71 0.0 0 0 417.33 106.54
  Q 420.33 121.25 421.93 127.89
  C 423.61 134.90 423.12 142.60 423.07 148.57
  A 1.20 1.19 -3.0 0 1 422.01 149.74
  L 375.50 155.06
  A 1.19 1.18 81.3 0 1 374.21 154.11
  Q 373.85 152.37 373.69 149.00
  C 372.97 133.46 372.21 106.69 371.34 85.81
  C 370.77 72.06 370.19 60.51 371.09 50.15
  A 0.79 0.79 0.0 0 1 371.83 49.43
  L 403.47 47.70
  A 1.73 1.71 82.3 0 1 405.24 49.06
  L 411.61 78.90
  Z"
/>
<path fill="#000000" d="
  M 750.14 129.87
  A 0.19 0.19 0.0 0 0 749.77 129.86
  L 747.74 141.59
  A 2.12 2.12 0.0 0 1 746.17 143.29
  L 699.81 154.92
  A 3.41 3.38 -31.2 0 1 696.75 154.18
  Q 671.82 132.21 661.04 122.64
  C 659.03 120.86 659.71 114.13 659.64 111.42
  A 0.23 0.23 0.0 0 0 659.20 111.33
  L 639.33 152.98
  A 2.44 2.43 12.7 0 1 637.13 154.37
  L 610.38 154.37
  A 1.33 1.33 0.0 0 1 609.12 153.47
  L 606.77 146.66
  A 0.37 0.36 -40.5 0 0 606.10 146.61
  L 602.40 153.60
  A 1.36 1.36 0.0 0 1 601.23 154.33
  L 575.32 155.23
  A 1.57 1.56 -8.2 0 1 573.74 154.05
  Q 554.25 76.45 553.64 74.32
  C 551.53 66.93 552.00 60.93 552.03 52.90
  A 1.54 1.54 0.0 0 1 553.44 51.38
  L 590.88 48.37
  A 0.93 0.93 0.0 0 1 591.85 49.07
  L 598.98 77.49
  A 0.74 0.73 -29.8 0 0 600.21 77.82
  L 612.88 65.16
  A 1.27 1.27 0.0 0 1 614.84 65.36
  L 623.23 78.26
  A 0.59 0.59 0.0 0 0 624.26 78.16
  L 635.99 49.88
  A 1.06 1.05 -72.5 0 1 637.19 49.25
  Q 655.74 53.16 673.01 56.94
  C 675.25 57.43 676.49 57.47 676.59 59.79
  A 0.43 0.43 0.0 0 0 677.25 60.13
  L 693.52 49.54
  A 4.79 4.78 29.7 0 1 696.35 48.77
  L 727.67 50.20
  A 2.36 2.33 -17.7 0 1 729.40 51.08
  L 744.68 70.11
  A 0.28 0.28 0.0 0 0 745.18 69.93
  L 745.18 54.29
  A 1.20 1.19 -2.3 0 1 746.28 53.10
  L 796.69 49.04
  A 3.93 3.92 -29.0 0 1 799.31 49.79
  L 819.58 64.71
  A 0.49 0.48 19.3 0 0 820.35 64.34
  L 821.00 50.01
  A 1.18 1.18 0.0 0 1 822.18 48.89
  L 856.54 48.89
  A 1.56 1.55 -2.2 0 1 858.09 50.32
  L 858.41 54.27
  A 0.55 0.54 62.8 0 0 859.37 54.58
  L 864.39 48.67
  A 1.35 1.35 0.0 0 1 866.41 48.62
  L 889.26 72.90
  A 4.44 4.40 25.0 0 1 890.45 76.13
  L 890.18 82.11
  A 0.49 0.48 -23.0 0 0 891.03 82.45
  Q 910.18 61.12 919.54 50.53
  Q 921.38 48.45 923.01 48.43
  Q 935.71 48.29 951.54 48.43
  A 3.14 3.10 68.3 0 1 953.79 49.42
  L 976.26 73.30
  A 3.75 3.70 -67.5 0 1 977.27 75.78
  Q 977.36 81.20 977.32 88.77
  Q 977.31 90.84 976.37 92.11
  Q 974.19 95.05 969.31 100.78
  A 1.06 1.05 -51.6 0 0 969.48 102.32
  L 971.85 104.07
  A 1.54 1.54 0.0 0 1 972.49 105.32
  L 972.49 118.67
  A 6.90 6.82 -31.3 0 1 971.69 121.88
  L 954.85 153.71
  A 2.53 2.51 -76.0 0 1 952.65 155.04
  Q 934.99 155.10 917.00 155.04
  C 914.86 155.04 913.60 154.58 911.89 153.23
  Q 896.59 141.11 893.14 138.28
  A 1.52 1.51 41.5 0 0 891.08 138.40
  Q 888.35 141.23 876.68 153.87
  C 874.07 156.69 871.69 157.97 868.85 154.89
  Q 864.90 150.61 863.18 148.92
  A 0.32 0.32 0.0 0 0 862.64 149.13
  L 862.39 154.62
  A 0.65 0.65 0.0 0 1 861.74 155.24
  L 820.38 155.24
  A 0.96 0.95 87.7 0 1 819.43 154.36
  L 819.05 149.59
  A 0.56 0.55 76.1 0 0 818.28 149.12
  L 803.04 155.74
  A 2.87 2.86 -36.5 0 1 800.06 155.30
  L 792.88 149.21
  A 0.49 0.48 21.8 0 0 792.08 149.55
  L 791.88 154.03
  A 1.03 1.03 0.0 0 1 790.85 155.01
  L 753.83 155.01
  A 1.32 1.29 -13.2 0 1 752.66 154.30
  Q 752.03 153.06 751.84 150.47
  Q 750.85 136.80 750.14 129.87
  Z
  M 885.76 94.98
  L 882.50 98.24
  A 1.19 1.19 0.0 0 0 882.48 99.90
  Q 883.69 101.17 885.63 102.18
  A 0.38 0.38 0.0 0 0 886.19 101.84
  L 886.19 95.16
  A 0.25 0.25 0.0 0 0 885.76 94.98
  Z"
/>
<path fill="#42b131" d="
  M 379.26 56.92
  L 398.42 55.87
  A 0.31 0.31 0.0 0 1 398.74 56.12
  L 413.92 127.22
  A 0.31 0.31 0.0 0 1 413.65 127.59
  L 381.87 131.22
  A 0.31 0.31 0.0 0 1 381.53 130.92
  L 378.97 57.24
  A 0.31 0.31 0.0 0 1 379.26 56.92
  Z"
/>
<path fill="#e61e07" d="
  M 665.63 64.29
  L 634.33 129.90
  A 2.16 2.14 12.5 0 1 632.38 131.13
  L 615.36 131.13
  A 0.83 0.82 80.6 0 1 614.58 130.57
  L 608.31 112.33
  A 0.38 0.37 -20.6 0 0 607.82 112.11
  Q 606.62 112.59 605.87 114.18
  Q 601.19 124.11 598.23 129.79
  A 3.29 3.27 12.7 0 1 595.44 131.55
  L 580.39 132.07
  A 0.53 0.52 -7.6 0 1 579.87 131.68
  L 561.53 58.60
  A 0.66 0.66 0.0 0 1 562.12 57.78
  L 584.98 55.94
  A 0.94 0.93 81.6 0 1 585.97 56.68
  Q 589.55 73.38 595.58 91.81
  A 0.51 0.51 0.0 0 0 596.42 92.01
  L 611.99 76.44
  A 0.84 0.83 -39.1 0 1 613.28 76.57
  L 624.69 94.11
  A 0.57 0.57 0.0 0 0 625.69 94.02
  L 640.57 58.14
  A 0.78 0.77 -72.4 0 1 641.45 57.68
  L 664.84 62.68
  A 1.15 1.14 -71.3 0 1 665.63 64.29
  Z"
/>
<path fill="#42b131" d="
  M 897.83 86.95
  A 0.48 0.48 0.0 0 1 897.71 86.21
  Q 904.71 78.55 922.89 57.87
  Q 924.65 55.87 926.25 55.82
  Q 936.43 55.48 948.03 55.90
  A 4.03 3.99 69.1 0 1 950.79 57.15
  L 967.12 74.51
  A 1.31 1.30 -46.4 0 1 967.16 76.25
  L 954.92 90.71
  A 1.03 1.03 0.0 0 1 953.58 90.90
  L 940.09 82.18
  A 1.18 1.18 0.0 0 0 938.55 82.41
  L 935.98 85.45
  A 1.17 1.16 -51.8 0 0 936.18 87.15
  L 962.41 106.46
  A 0.60 0.60 0.0 0 1 962.58 107.23
  L 949.91 131.18
  A 1.67 1.66 13.4 0 1 948.45 132.07
  Q 937.14 132.14 920.25 132.09
  C 917.49 132.08 916.54 131.94 914.37 130.15
  Q 906.90 123.99 897.33 116.71
  A 0.47 0.47 0.0 0 1 897.28 116.01
  C 899.86 113.41 899.59 112.08 896.74 109.89
  A 0.43 0.42 -57.0 0 1 896.63 109.34
  L 903.30 97.78
  A 0.89 0.88 -59.5 0 1 904.51 97.46
  L 921.99 107.55
  A 1.84 1.83 -58.6 0 0 924.45 106.95
  L 925.66 105.08
  A 1.70 1.69 31.4 0 0 925.08 102.69
  L 897.83 86.95
  Z"
/>
<path fill="#009cd9" d="
  M 119.64 58.68
  L 123.57 130.61
  A 0.56 0.56 0.0 0 1 122.98 131.20
  L 100.42 130.17
  A 0.56 0.56 0.0 0 1 99.89 129.61
  L 99.89 107.84
  A 0.56 0.56 0.0 0 0 99.21 107.29
  L 85.85 110.15
  A 0.56 0.56 0.0 0 0 85.41 110.72
  L 86.09 130.50
  A 0.56 0.56 0.0 0 1 85.53 131.08
  L 64.32 131.08
  A 0.56 0.56 0.0 0 1 63.76 130.58
  L 55.85 61.21
  A 0.56 0.56 0.0 0 1 56.30 60.59
  L 80.87 55.93
  A 0.56 0.56 0.0 0 1 81.53 56.46
  L 82.57 86.20
  A 0.56 0.56 0.0 0 0 83.21 86.74
  L 97.05 84.70
  A 0.56 0.56 0.0 0 0 97.53 84.17
  L 98.73 57.78
  A 0.56 0.56 0.0 0 1 99.32 57.25
  L 119.10 58.15
  A 0.56 0.56 0.0 0 1 119.64 58.68
  Z"
/>
<path fill="#e61e07" d="
  M 232.05 132.16
  A 0.85 0.85 0.0 0 1 231.19 131.52
  L 212.79 58.20
  A 0.34 0.34 0.0 0 1 213.09 57.78
  L 235.72 55.96
  A 1.29 1.28 79.6 0 1 237.06 56.89
  L 246.88 92.31
  A 0.27 0.27 0.0 0 0 247.33 92.43
  L 263.28 76.47
  A 0.88 0.87 51.1 0 1 264.63 76.62
  L 275.87 93.89
  A 0.71 0.71 0.0 0 0 277.12 93.77
  L 291.84 58.29
  A 0.96 0.96 0.0 0 1 292.93 57.72
  L 317.02 62.87
  A 0.45 0.45 0.0 0 1 317.33 63.50
  L 285.45 130.32
  A 1.38 1.36 12.6 0 1 284.21 131.10
  L 266.56 131.10
  A 0.70 0.68 -9.3 0 1 265.90 130.64
  L 259.46 111.88
  A 0.53 0.53 0.0 0 0 258.49 111.82
  Q 257.92 112.96 249.59 129.63
  Q 248.55 131.72 246.03 131.75
  Q 238.86 131.85 232.05 132.16
  Z"
/>
<path fill="#009cd9" d="
  M 849.60 76.21
  A 0.34 0.34 0.0 0 0 850.20 76.44
  L 864.80 59.91
  A 1.11 1.11 0.0 0 1 866.45 59.88
  L 879.26 73.49
  A 1.08 1.07 -46.0 0 1 879.28 74.94
  L 862.33 94.15
  A 0.62 0.61 -51.8 0 0 862.43 95.06
  L 888.71 113.64
  A 0.09 0.09 0.0 0 1 888.72 113.77
  L 873.62 130.88
  A 1.49 1.49 0.0 0 1 871.42 130.91
  L 850.21 108.37
  A 0.50 0.50 0.0 0 0 849.36 108.80
  L 853.64 131.40
  A 0.55 0.55 0.0 0 1 853.09 132.06
  L 828.13 131.97
  A 1.18 1.18 0.0 0 1 827.11 130.21
  Q 827.26 129.94 828.46 129.21
  Q 829.29 128.71 833.59 126.84
  A 1.40 1.37 -7.9 0 0 834.42 125.77
  Q 834.80 123.18 834.18 121.31
  A 1.89 1.88 -78.6 0 0 833.65 120.51
  L 828.67 116.11
  A 2.69 2.69 0.0 0 1 827.76 114.05
  L 828.67 57.29
  A 0.61 0.61 0.0 0 1 829.28 56.69
  L 849.15 56.69
  A 0.76 0.75 -89.6 0 1 849.90 57.46
  L 849.60 76.21
  Z"
/>
<path fill="#fccf00" d="
  M 159.66 131.80
  A 0.83 0.82 58.9 0 1 158.90 131.61
  Q 146.42 120.44 130.96 107.05
  Q 129.89 106.12 129.67 103.74
  C 128.63 92.89 130.15 84.63 131.80 73.29
  A 3.03 3.01 77.8 0 1 133.14 71.20
  Q 133.67 70.85 153.66 58.17
  C 155.40 57.06 156.74 56.63 158.89 56.70
  Q 166.74 56.94 183.28 57.76
  A 1.65 1.62 71.7 0 1 184.46 58.37
  L 205.50 84.56
  A 1.93 1.92 30.9 0 1 205.89 86.09
  L 199.85 121.16
  A 0.93 0.91 -2.6 0 1 199.17 121.89
  L 159.66 131.80
  Z"
/>
<path fill="#fccf00" d="
  M 470.24 84.85
  L 477.12 131.46
  A 0.52 0.52 0.0 0 1 476.61 132.06
  L 441.28 132.06
  A 0.52 0.52 0.0 0 1 440.77 131.48
  L 446.16 84.78
  A 0.52 0.52 0.0 0 0 445.66 84.20
  L 420.78 83.07
  A 0.52 0.52 0.0 0 1 420.28 82.55
  L 420.28 57.25
  A 0.52 0.52 0.0 0 1 420.81 56.73
  L 495.09 57.91
  A 0.52 0.52 0.0 0 1 495.60 58.43
  L 495.60 87.91
  A 0.52 0.52 0.0 0 1 494.99 88.43
  L 470.85 84.26
  A 0.52 0.52 0.0 0 0 470.24 84.85
  Z"
/>
<path fill="#42b131" d="
  M 668.15 103.35
  L 672.84 72.96
  A 2.38 2.36 78.3 0 1 673.89 71.35
  Q 678.14 68.58 693.06 59.05
  Q 696.84 56.64 699.75 56.75
  Q 706.52 57.01 723.66 57.74
  A 2.61 2.58 71.6 0 1 725.57 58.71
  L 746.04 84.20
  A 3.05 3.01 30.7 0 1 746.67 86.61
  L 740.79 120.74
  A 1.52 1.51 -2.1 0 1 739.67 121.94
  L 700.51 131.77
  A 0.89 0.86 -30.2 0 1 699.74 131.58
  L 668.34 103.87
  A 0.60 0.60 0.0 0 1 668.15 103.35
  Z"
/>
<path fill="#fccf00" d="
  M 782.89 131.54
  A 0.44 0.43 84.5 0 1 782.47 132.06
  L 759.89 132.06
  A 0.52 0.52 0.0 0 1 759.37 131.58
  L 753.67 60.77
  A 0.91 0.91 0.0 0 1 754.53 59.78
  Q 770.68 58.78 793.03 56.85
  Q 794.84 56.69 796.17 57.03
  A 1.84 1.80 -19.1 0 1 796.89 57.37
  L 814.03 69.98
  A 1.50 1.50 0.0 0 1 814.65 71.09
  L 816.38 92.57
  A 3.34 3.31 63.5 0 1 815.57 95.02
  L 806.18 105.66
  A 0.36 0.36 0.0 0 0 806.21 106.17
  L 824.46 122.27
  A 0.19 0.18 54.8 0 1 824.41 122.58
  L 803.65 131.60
  A 1.74 1.72 53.0 0 1 801.84 131.33
  L 780.41 113.16
  A 0.55 0.55 0.0 0 0 779.51 113.69
  L 782.89 131.54
  Z"
/>
<path fill="#000000" d="
  M 780.29 78.22
  L 790.77 83.77
  A 0.60 0.60 0.0 0 1 790.98 84.65
  L 785.24 92.78
  A 0.60 0.60 0.0 0 1 784.68 93.03
  L 779.34 92.41
  A 0.60 0.60 0.0 0 1 778.81 91.79
  L 779.41 78.73
  A 0.60 0.60 0.0 0 1 780.29 78.22
  Z"
/>
<path fill="#000000" d="
  M 715.62 97.30
  Q 715.09 97.52 709.26 99.74
  C 707.46 100.42 706.28 100.52 704.72 99.36
  Q 701.76 97.15 698.32 95.15
  A 0.73 0.71 -64.1 0 1 698.02 94.25
  L 702.32 83.87
  A 1.17 1.16 17.2 0 1 703.64 83.18
  L 715.08 85.63
  A 0.86 0.86 0.0 0 1 715.76 86.43
  L 716.21 96.35
  A 1.00 0.99 -13.6 0 1 715.62 97.30
  Z"
/>
<path fill="#000000" d="
  M 175.32 96.35
  A 1.00 0.99 -13.5 0 1 174.73 97.30
  Q 174.20 97.52 168.38 99.72
  C 166.59 100.39 165.41 100.49 163.86 99.33
  Q 160.91 97.12 157.49 95.12
  A 0.73 0.71 -64.0 0 1 157.19 94.22
  L 161.50 83.89
  A 1.17 1.16 17.3 0 1 162.81 83.20
  L 174.21 85.67
  A 0.86 0.85 4.9 0 1 174.89 86.47
  L 175.32 96.35
  Z"
/>
</svg>
