<?xml version="1.0" encoding="UTF-8" standalone="no"?>
<!DOCTYPE svg PUBLIC "-//W3C//DTD SVG 1.1//EN" "http://www.w3.org/Graphics/SVG/1.1/DTD/svg11.dtd">
<svg xmlns="http://www.w3.org/2000/svg" version="1.1" viewBox="0.00 0.00 1024.00 268.00">
<path fill="#000000" d="
  M 929.59 167.57
  A 0.53 0.53 0.0 0 0 928.70 167.10
  L 897.12 197.64
  A 1.29 1.24 20.3 0 1 896.32 197.99
  L 870.11 199.31
  A 1.06 1.06 0.0 0 0 869.10 200.37
  Q 869.12 211.68 869.01 219.01
  Q 868.99 220.81 868.36 221.96
  A 0.97 0.95 14.1 0 1 867.52 222.45
  L 809.38 222.45
  A 1.26 1.26 0.0 0 1 808.12 221.22
  L 807.46 197.06
  A 0.39 0.39 0.0 0 0 806.78 196.81
  L 784.74 221.65
  A 2.35 2.33 -69.1 0 1 782.99 222.44
  Q 733.26 222.50 715.57 222.43
  C 713.91 222.43 713.02 221.06 712.01 219.85
  Q 699.91 205.26 687.30 189.68
  C 684.27 185.94 684.42 182.30 684.42 177.25
  Q 684.49 85.40 684.62 59.29
  A 1.74 1.74 0.0 0 1 686.36 57.56
  L 757.77 57.56
  A 1.36 1.36 0.0 0 1 759.13 58.85
  L 759.44 65.08
  A 0.81 0.81 0.0 0 0 760.25 65.85
  L 813.56 65.85
  A 0.90 0.90 0.0 0 0 814.45 65.05
  L 815.16 58.93
  A 1.47 1.46 -86.7 0 1 816.61 57.63
  L 893.30 57.63
  A 2.27 2.24 62.0 0 1 894.58 58.03
  L 914.21 71.58
  A 0.54 0.54 0.0 0 0 915.06 71.13
  L 915.06 56.35
  A 1.75 1.75 0.0 0 1 916.57 54.62
  L 969.30 47.17
  A 1.12 1.12 0.0 0 1 970.57 48.17
  C 971.83 60.58 971.76 72.86 972.18 85.76
  Q 972.68 100.94 974.40 162.99
  Q 974.45 164.78 975.52 166.29
  Q 976.69 167.96 977.45 170.80
  A 1.16 0.71 -65.1 0 1 977.48 171.06
  L 977.55 193.66
  A 3.99 3.99 0.0 0 1 977.41 194.78
  L 970.65 219.52
  A 2.19 2.19 0.0 0 1 968.59 221.13
  L 944.11 221.80
  A 2.60 2.59 71.0 0 1 941.97 220.75
  L 927.07 200.58
  A 4.21 4.20 -63.2 0 1 926.24 198.04
  Q 926.30 189.40 926.25 176.26
  Q 926.24 173.17 927.85 171.10
  Q 929.29 169.24 929.59 167.57
  Z"
/>
<path fill="#000000" d="
  M 276.51 193.42
  Q 276.11 194.36 276.10 196.15
  Q 275.97 215.69 275.90 220.37
  A 1.14 1.14 0.0 0 1 274.76 221.50
  L 166.05 221.50
  A 1.65 1.65 0.0 0 1 164.41 220.04
  L 163.18 209.68
  A 0.82 0.82 0.0 0 0 162.27 208.96
  L 53.65 221.79
  A 1.51 1.50 84.0 0 1 51.99 220.44
  C 50.99 209.77 51.47 200.23 50.62 189.86
  C 50.01 182.40 50.61 175.35 49.85 167.42
  Q 49.20 160.72 49.38 149.20
  Q 49.44 145.77 49.19 143.82
  C 48.25 136.56 48.44 130.80 48.44 121.66
  Q 48.44 119.45 48.05 116.33
  C 46.91 107.14 47.82 97.52 47.36 93.56
  C 46.05 82.33 46.62 70.53 46.64 60.25
  Q 46.64 58.01 46.93 55.59
  A 1.02 1.02 0.0 0 1 48.05 54.70
  L 113.42 62.25
  A 1.36 1.35 3.1 0 1 114.62 63.58
  Q 114.72 76.01 114.65 92.06
  C 114.63 95.74 113.61 98.95 113.72 102.20
  Q 113.94 109.07 113.03 113.89
  A 11.15 11.05 -40.7 0 0 112.83 116.37
  Q 113.01 122.93 112.06 128.96
  A 0.89 0.88 -88.7 0 0 113.03 129.98
  L 153.65 125.18
  A 1.22 1.21 85.6 0 0 154.72 123.93
  Q 154.56 119.82 154.55 113.44
  Q 154.55 109.94 155.95 103.13
  Q 163.10 68.32 164.56 61.31
  Q 164.99 59.26 165.66 57.35
  A 1.11 1.10 -80.3 0 1 166.70 56.61
  Q 200.65 56.58 246.79 56.60
  C 249.75 56.60 252.04 55.71 254.71 55.87
  Q 280.22 57.44 313.40 59.16
  A 1.74 1.73 84.7 0 1 315.01 60.50
  L 324.40 100.62
  A 0.30 0.30 0.0 0 0 324.98 100.63
  L 336.09 60.79
  A 2.24 2.23 6.4 0 1 338.15 59.15
  Q 344.20 58.87 401.75 56.11
  Q 402.92 56.05 405.51 56.55
  A 3.87 3.59 -37.7 0 0 406.18 56.61
  L 490.12 56.61
  A 0.54 0.53 -62.3 0 0 490.43 56.51
  L 492.67 54.85
  A 0.57 0.56 29.7 0 1 493.05 54.75
  L 557.99 62.25
  A 1.63 1.62 3.2 0 1 559.43 63.85
  Q 559.54 78.40 559.44 93.24
  Q 559.43 93.81 558.75 98.51
  A 12.78 11.91 -43.0 0 0 558.61 100.49
  Q 558.64 108.01 558.15 111.23
  C 557.28 117.02 557.81 122.84 556.74 129.36
  A 0.57 0.57 0.0 0 0 557.36 130.02
  L 600.12 124.97
  A 1.14 1.13 78.8 0 1 601.35 125.80
  Q 601.68 127.05 601.73 127.54
  Q 602.04 130.49 607.41 175.08
  C 608.80 186.61 608.28 195.08 608.28 207.97
  A 0.96 0.95 86.6 0 1 607.44 208.92
  Q 543.51 216.42 524.87 218.64
  Q 518.91 219.36 517.01 219.83
  Q 511.43 221.24 509.27 221.38
  Q 502.13 221.84 497.71 221.65
  Q 492.90 221.45 487.81 221.44
  Q 447.37 221.42 405.17 221.51
  A 1.88 1.88 0.0 0 1 403.29 219.85
  Q 399.19 186.30 394.30 141.55
  C 393.37 133.02 393.23 126.81 393.52 119.27
  A 0.33 0.32 56.5 0 0 392.89 119.14
  L 354.55 220.67
  A 1.86 1.85 -77.5 0 1 352.67 221.87
  L 283.27 216.62
  A 2.08 2.06 85.6 0 1 281.41 215.01
  L 276.57 193.43
  A 0.03 0.03 0.0 0 0 276.51 193.42
  Z
  M 274.05 183.69
  Q 268.09 157.85 259.29 121.07
  A 0.24 0.24 0.0 0 0 258.87 120.97
  Q 258.57 121.35 258.45 121.96
  Q 256.95 130.09 256.48 132.50
  Q 256.00 135.00 254.04 136.03
  A 1.77 1.76 -12.6 0 0 253.10 137.50
  L 252.89 141.70
  A 0.75 0.75 0.0 0 0 253.60 142.49
  L 255.28 142.57
  A 1.82 1.81 -9.8 0 1 256.86 143.68
  L 273.93 183.73
  A 0.06 0.06 0.0 0 0 274.05 183.69
  Z
  M 493.1670 137.3749
  A 0.62 0.62 0.0 0 0 492.5601 136.7421
  L 492.4201 136.7392
  A 0.62 0.62 0.0 0 0 491.7873 137.3460
  L 491.6930 141.8451
  A 0.62 0.62 0.0 0 0 492.2999 142.4779
  L 492.4399 142.4808
  A 0.62 0.62 0.0 0 0 493.0727 141.8740
  L 493.1670 137.3749
  Z"
/>
<path fill="#fccf00" d="
  M 961.41 150.82
  L 943.51 152.41
  A 0.60 0.60 0.0 0 1 942.87 151.91
  L 928.41 64.69
  A 0.60 0.60 0.0 0 1 928.92 63.99
  L 958.83 59.76
  A 0.60 0.60 0.0 0 1 959.52 60.34
  L 961.95 150.21
  A 0.60 0.60 0.0 0 1 961.41 150.82
  Z"
/>
<path fill="#42b131" d="
  M 500.81 184.26
  A 0.28 0.28 0.0 0 1 500.55 184.66
  L 414.96 184.67
  A 1.27 1.26 -3.0 0 1 413.70 183.54
  L 405.59 110.95
  A 11.33 11.25 -42.7 0 1 405.74 107.45
  L 413.65 68.47
  A 1.21 1.21 0.0 0 1 414.83 67.51
  L 490.79 67.49
  A 0.56 0.56 0.0 0 1 491.34 68.16
  L 484.91 99.88
  A 0.91 0.90 1.8 0 1 484.15 100.59
  L 447.45 105.78
  A 0.92 0.92 0.0 0 0 446.67 106.64
  L 446.34 113.29
  A 0.89 0.88 -86.7 0 0 447.16 114.22
  L 479.36 116.66
  A 0.48 0.47 -86.9 0 1 479.80 117.16
  L 478.60 141.19
  A 0.78 0.77 88.7 0 1 477.90 141.93
  L 449.50 144.45
  A 0.71 0.70 -9.6 0 0 448.88 145.31
  L 450.42 151.88
  A 1.87 1.85 -6.4 0 0 452.24 153.32
  L 486.85 153.31
  A 1.18 1.18 0.0 0 1 487.93 154.02
  L 500.81 184.26
  Z"
/>
<path fill="#009cd9" d="
  M 102.64 73.06
  L 98.17 142.77
  A 0.53 0.53 0.0 0 0 98.76 143.33
  L 146.08 137.74
  A 0.53 0.53 0.0 0 1 146.67 138.21
  L 150.87 173.68
  A 0.53 0.53 0.0 0 1 150.40 174.27
  L 63.68 184.51
  A 0.53 0.53 0.0 0 1 63.09 184.01
  L 58.76 68.11
  A 0.53 0.53 0.0 0 1 59.35 67.56
  L 102.17 72.50
  A 0.53 0.53 0.0 0 1 102.64 73.06
  Z"
/>
<path fill="#fccf00" d="
  M 261.91 184.20
  A 0.28 0.28 0.0 0 1 261.65 184.60
  L 176.10 184.60
  A 1.27 1.26 -3.0 0 1 174.84 183.47
  L 166.75 110.91
  A 11.32 11.25 -42.7 0 1 166.90 107.41
  L 174.81 68.45
  A 1.21 1.21 0.0 0 1 175.99 67.49
  L 251.92 67.49
  A 0.56 0.56 0.0 0 1 252.47 68.16
  L 246.03 99.86
  A 0.91 0.90 1.8 0 1 245.27 100.57
  L 208.59 105.75
  A 0.92 0.92 0.0 0 0 207.81 106.61
  L 207.48 113.26
  A 0.89 0.88 -86.7 0 0 208.30 114.19
  L 240.48 116.63
  A 0.48 0.47 -86.9 0 1 240.92 117.13
  L 239.72 141.15
  A 0.78 0.77 88.7 0 1 239.02 141.89
  L 210.63 144.40
  A 0.71 0.70 -9.6 0 0 210.01 145.26
  L 211.55 151.83
  A 1.87 1.85 -6.4 0 0 213.37 153.27
  L 247.96 153.27
  A 1.18 1.18 0.0 0 1 249.04 153.98
  L 261.91 184.20
  Z"
/>
<path fill="#e61e07" d="
  M 390.04 67.48
  A 0.52 0.51 -80.9 0 1 390.54 68.18
  L 346.44 184.99
  A 0.90 0.89 -77.2 0 1 345.54 185.56
  L 292.02 181.51
  A 1.15 1.15 0.0 0 1 291.00 180.63
  L 264.71 68.37
  A 0.63 0.63 0.0 0 1 265.36 67.60
  L 304.19 69.53
  A 1.37 1.36 84.6 0 1 305.45 70.58
  L 321.56 139.37
  A 0.52 0.52 0.0 0 0 322.44 139.61
  C 325.97 135.90 327.71 133.48 329.24 127.95
  Q 343.20 77.67 345.09 70.83
  A 1.58 1.58 0.0 0 1 346.54 69.68
  L 390.04 67.48
  Z"
/>
<path fill="#fccf00" d="
  M 503.35 67.93
  A 0.37 0.37 0.0 0 1 503.76 67.55
  L 546.75 72.51
  A 0.61 0.61 0.0 0 1 547.29 73.16
  L 542.83 142.74
  A 0.53 0.53 0.0 0 0 543.43 143.30
  L 590.58 137.73
  A 0.74 0.73 -6.3 0 1 591.39 138.37
  L 595.49 173.06
  A 1.14 1.14 0.0 0 1 594.49 174.32
  L 514.21 183.81
  A 2.12 2.12 0.0 0 1 512.02 182.54
  C 509.62 176.93 507.30 172.52 507.09 166.70
  Q 505.94 134.92 503.35 67.93
  Z"
/>
<path fill="#42b131" d="
  M 856.73 186.52
  L 820.83 186.52
  A 0.50 0.50 0.0 0 1 820.33 185.99
  L 826.15 69.06
  A 0.62 0.61 1.0 0 1 826.76 68.48
  Q 870.95 68.29 888.23 68.51
  Q 890.24 68.53 892.59 70.16
  Q 907.27 80.32 917.33 87.15
  A 1.57 1.57 0.0 0 1 918.02 88.43
  C 918.11 92.96 918.72 97.90 918.89 103.89
  C 919.24 116.57 920.03 122.62 919.92 134.23
  A 1.73 1.71 -22.2 0 1 919.39 135.47
  Q 900.49 153.87 893.53 160.53
  Q 892.18 161.83 889.75 162.01
  Q 878.53 162.83 857.59 164.15
  A 0.40 0.39 88.5 0 0 857.22 164.55
  L 857.22 186.02
  A 0.50 0.49 -90.0 0 1 856.73 186.52
  Z"
/>
<path fill="#e61e07" d="
  M 759.72 76.69
  L 806.75 76.69
  A 0.73 0.73 0.0 0 1 807.48 77.42
  L 807.48 152.18
  A 3.58 3.55 66.0 0 1 806.58 154.55
  L 780.18 184.31
  A 3.69 3.65 20.5 0 1 777.43 185.54
  L 719.99 185.54
  A 1.65 1.63 -19.5 0 1 718.72 184.94
  L 697.80 159.19
  A 5.52 5.49 -68.6 0 1 696.61 156.45
  Q 696.13 152.93 696.14 148.50
  Q 696.22 100.22 696.14 69.21
  A 0.78 0.78 0.0 0 1 696.92 68.43
  L 746.36 68.43
  A 0.93 0.92 0.9 0 1 747.29 69.38
  L 744.96 146.57
  A 0.91 0.91 0.0 0 0 746.41 147.33
  L 763.46 134.73
  A 2.66 2.65 68.9 0 0 764.53 132.31
  L 758.85 77.65
  A 0.87 0.87 0.0 0 1 759.72 76.69
  Z"
/>
<path fill="#000000" d="
  M 872.44 125.07
  L 863.21 124.01
  A 0.64 0.64 0.0 0 1 862.64 123.34
  L 863.52 105.56
  A 0.64 0.64 0.0 0 1 864.29 104.97
  L 885.53 109.28
  A 0.64 0.64 0.0 0 1 885.88 110.33
  L 872.99 124.86
  A 0.64 0.64 0.0 0 1 872.44 125.07
  Z"
/>
<path fill="#fccf00" d="
  M 959.84 163.24
  Q 964.07 169.41 964.63 170.61
  Q 965.14 171.71 964.33 174.33
  Q 963.69 176.43 961.69 183.73
  A 1.85 1.84 -83.9 0 1 960.01 185.09
  L 949.92 185.60
  A 2.57 2.56 -19.5 0 1 947.75 184.57
  L 940.32 174.51
  A 2.40 2.39 41.9 0 1 940.17 171.88
  L 944.71 164.02
  A 1.88 1.87 13.6 0 1 946.24 163.09
  L 958.30 162.48
  A 1.77 1.76 71.1 0 1 959.84 163.24
  Z"
/>
</svg>
